<svg id="Layer_1" data-name="Layer 1" xmlns="http://www.w3.org/2000/svg" viewBox="0 0 86.55 113.29"><defs><style>.cls-1{font-size:16.4px;font-family:CenturyGothic-Bold, Century Gothic;font-weight:700;}.cls-1,.cls-2{fill:#7a94cc;}</style></defs><text class="cls-1" transform="translate(13.68 109.67)">Ahimsa</text><path class="cls-2" d="M45.84,91.5,43.2,94.36H55.59L53.18,91.5s-3-57.49-3.81-71.95h0l-3.53,72" transform="translate(-5.54 -1.65)"/><path id="down-left" class="cls-2" d="M22.64,48.53S37.74,46.19,48.2,59v2.47S41,49.11,22.64,48.53Z" transform="translate(-5.54 -1.65)"/><path id="down-right" class="cls-2" d="M75.71,48.21S60.6,45.87,50.14,58.64v2.47S57.35,48.79,75.71,48.21Z" transform="translate(-5.54 -1.65)"/><path class="cls-2" d="M74.48,29.3s-9.64-.11-11.9,1.55l-2.22,3.39S65.23,29.48,74.48,29.3Z" transform="translate(-5.54 -1.65)"/><path class="cls-2" d="M63.93,20.8s-2.57,12.12-5.4,13.44l3.58-2.44S64,25.35,63.93,20.8Z" transform="translate(-5.54 -1.65)"/><path class="cls-2" d="M67.78,26S50.72,43.8,48.41,51.92V46.46S57.3,33.84,67.78,26Z" transform="translate(-5.54 -1.65)"/><path class="cls-2" d="M23.64,28.68s9.8-.11,12.1,1.54L38,33.61S33,28.85,23.64,28.68Z" transform="translate(-5.54 -1.65)"/><path class="cls-2" d="M34.37,20.17S37,32.3,39.86,33.61l-3.65-2.43S34.3,24.72,34.37,20.17Z" transform="translate(-5.54 -1.65)"/><path class="cls-2" d="M30.45,25.35S47.79,43.17,50.14,51.3V45.83S41.11,33.21,30.45,25.35Z" transform="translate(-5.54 -1.65)"/><path class="cls-2" d="M46.29,23.42c0,4.55-4.59,8.23-4.59,8.23S37.11,28,37.11,23.42s4.59-8.23,4.59-8.23S46.29,18.88,46.29,23.42Z" transform="translate(-5.54 -1.65)"/><path class="cls-2" d="M61.07,23.42c0,4.55-4.59,8.23-4.59,8.23S51.89,28,51.89,23.42s4.59-8.23,4.59-8.23S61.07,18.88,61.07,23.42Z" transform="translate(-5.54 -1.65)"/><path class="cls-2" d="M54,9.88c0,4.55-4.59,8.23-4.59,8.23s-4.59-3.68-4.59-8.23,4.59-8.23,4.59-8.23S54,5.34,54,9.88Z" transform="translate(-5.54 -1.65)"/><path class="cls-2" d="M76.66,21.39c-2.67,3.68-8.55,4-8.55,4S66.56,19.67,69.23,16s8.55-4,8.55-4S79.33,17.71,76.66,21.39Z" transform="translate(-5.54 -1.65)"/><path class="cls-2" d="M28.24,15.5c3,3.39,2.06,9.2,2.06,9.2s-5.87.31-8.9-3.08-2.07-9.19-2.07-9.19S25.21,12.11,28.24,15.5Z" transform="translate(-5.54 -1.65)"/><path class="cls-2" d="M77,43.19c-2.67,3.68-8.55,4-8.55,4s-1.55-5.68,1.13-9.35,8.55-4,8.55-4S79.67,39.52,77,43.19Z" transform="translate(-5.54 -1.65)"/><path class="cls-2" d="M65.22,44.76c-2.46,3.82-8.31,4.43-8.31,4.43s-1.87-5.58.59-9.4,8.32-4.44,8.32-4.44S67.68,40.93,65.22,44.76Z" transform="translate(-5.54 -1.65)"/><path class="cls-2" d="M70.87,60.3c-3.62-2.74-3.8-8.62-3.8-8.62S72.78,50.23,76.4,53s3.81,8.63,3.81,8.63S74.5,63,70.87,60.3Z" transform="translate(-5.54 -1.65)"/><path class="cls-2" d="M59.15,64.66c-2.44-3.83-.54-9.4-.54-9.4s5.85.64,8.29,4.48.54,9.4.54,9.4S61.59,68.5,59.15,64.66Z" transform="translate(-5.54 -1.65)"/><path class="cls-2" d="M84.43,52.88c-4.11-.23-7.21-4.55-7.21-4.55s3.56-4,7.66-3.74,7.21,4.55,7.21,4.55S88.53,53.11,84.43,52.88Z" transform="translate(-5.54 -1.65)"/><path class="cls-2" d="M12.89,44.73c4.11-.09,7.54,4,7.54,4S17.19,52.94,13.08,53s-7.54-4-7.54-4S8.78,44.83,12.89,44.73Z" transform="translate(-5.54 -1.65)"/><path class="cls-2" d="M41.49,40.51c1.42,4.31-1.78,9.25-1.78,9.25s-5.51-2.06-6.94-6.37,1.77-9.26,1.77-9.26S40.06,36.19,41.49,40.51Z" transform="translate(-5.54 -1.65)"/><path class="cls-2" d="M28.87,38c2.51,3.79.71,9.4.71,9.4S23.72,46.8,21.21,43s-.71-9.4-.71-9.4S26.37,34.16,28.87,38Z" transform="translate(-5.54 -1.65)"/><path class="cls-2" d="M20.37,52.1c3.57-2.81,9.3-1.49,9.3-1.49s-.05,5.88-3.62,8.7-9.3,1.49-9.3,1.49S16.8,54.92,20.37,52.1Z" transform="translate(-5.54 -1.65)"/><path class="cls-2" d="M29.76,57.93c2.86-3.53,8.75-3.51,8.75-3.51s1.25,5.75-1.61,9.28-8.75,3.51-8.75,3.51S26.9,61.46,29.76,57.93Z" transform="translate(-5.54 -1.65)"/></svg>