<?xml version="1.0" encoding="utf-8"?>
<!-- Generator: Adobe Illustrator 17.1.0, SVG Export Plug-In . SVG Version: 6.00 Build 0)  -->
<!DOCTYPE svg PUBLIC "-//W3C//DTD SVG 1.1//EN" "http://www.w3.org/Graphics/SVG/1.1/DTD/svg11.dtd">
<svg version="1.1" id="Layer_1" xmlns="http://www.w3.org/2000/svg" xmlns:xlink="http://www.w3.org/1999/xlink" x="0px" y="0px"
	 viewBox="0 0 435 434.5" enable-background="new 0 0 435 434.5" xml:space="preserve">
<g id="layer101">
	<path d="M179.3,3c1.4-0.2,2.8-0.4,4.2-0.5C181.9,2.7,180.5,2.8,179.3,3z"/>
	<path d="M390,333.4c5.3-8.1,11-15.9,14.1-25.3c3-9.1,4.7-18.5,6.3-28c1.7-10,3.8-19.8,6.1-29.7c2.4-10.3,4.7-20.8,4.4-31.5
		c-0.3-10.6-2.1-21-4.4-31.3c-4.2-19.4-9.7-38.6-10.5-58.5c-0.7-1-1.3-2-1.9-3c-7.1-11.7-12.7-24.3-20.8-35.3
		c-8.3-11.4-19.7-21.5-30.1-30.9c-10.8-9.8-22.5-17.3-34.9-24.8c-11.9-7.3-23.9-15-36.9-20.1c-6.6-2.6-13.4-4.8-20.4-5.8
		c-7.2-1-14.5-0.5-21.7-0.3c-16.1,0.5-32.2,1.3-48.2,2.9c-15.4,1.6-30.7,4.1-45.2,9.6c-12.1,4.6-25.3,8.5-36.6,15.1
		c1.3,2.2,1.1,5-1.8,6.4c-10.8,5.2-19.7,13-28.8,20.7c-7.6,6.5-16.2,12-23.1,19.2c-6.4,6.7-11.1,14.5-15,23
		c-2.3,5.1-4.7,9.8-7.9,14.4c-3.3,4.6-6.7,9.2-9,14.4c-5.1,11.2-8.6,23.9-10.7,36c-2.1,12.2-4.6,24.3-6.6,36.5
		c-2.1,12.9,1.6,24,4.1,36.4c2.2,10.8,1.9,21.4,6.3,31.7c1.3,2.9-0.2,5.6-2.4,6.9c0.5,0.7,0.9,1.6,1.1,2.6
		c3.1,24.4,19.6,45.6,33.8,64.9c14.8,20,36.5,32.7,55.2,48.6c0.1,0.1,0.1,0.2,0.2,0.2c1.2-0.6,2.7-0.7,4.3,0
		c14.3,6.1,28.6,13.4,43.3,18.9c0.6-0.3,1.3-0.5,2.1-0.6c18.9-0.7,37.9-1.4,56.8-0.7c0.8-0.1,1.5-0.1,2.3-0.2
		c19.5-1.8,39.6-3.1,58.7-7.6c9-2.1,17.8-4.8,26.3-8.4c7.4-3.1,14.4-6.9,21.7-10c3.6-1.5,7.3-3.1,11.1-4.7c-1.4-1.7-1.6-4.2,0.6-6
		c13.6-11.2,29.2-19,44.6-27.2C381.6,346,385.8,339.7,390,333.4z"/>
</g>
<g id="layer102">
	<path fill="#FB0404" d="M179.3,3c1.4-0.2,2.8-0.4,4.2-0.5C181.9,2.7,180.5,2.8,179.3,3z"/>
	<path fill="#FB0404" d="M390,333.4c5.3-8.1,11-15.9,14.1-25.3c3-9.1,4.7-18.5,6.3-28c1.7-10,3.8-19.8,6.1-29.7
		c2.4-10.3,4.7-20.8,4.4-31.5c-0.3-10.6-2.1-21-4.4-31.3c-4.2-19.4-9.7-38.6-10.5-58.5c-0.7-1-1.3-2-1.9-3
		c-7.1-11.7-12.7-24.3-20.8-35.3c-8.3-11.4-19.7-21.5-30.1-30.9c-10.8-9.8-22.5-17.3-34.9-24.8c-11.9-7.3-23.9-15-36.9-20.1
		c-6.6-2.6-13.4-4.8-20.4-5.8c-7.2-1-14.5-0.5-21.7-0.3c-16.1,0.5-32.2,1.3-48.2,2.9c-15.4,1.6-30.7,4.1-45.2,9.6
		c-12.1,4.6-25.3,8.5-36.6,15.1c1.3,2.2,1.1,5-1.8,6.4c-10.8,5.2-19.7,13-28.8,20.7c-7.6,6.5-16.2,12-23.1,19.2
		c-6.4,6.7-11.1,14.5-15,23c-2.3,5.1-4.7,9.8-7.9,14.4c-3.3,4.6-6.7,9.2-9,14.4c-5.1,11.2-8.6,23.9-10.7,36
		c-2.1,12.2-4.6,24.3-6.6,36.5c-2.1,12.9,1.6,24,4.1,36.4c2.2,10.8,1.9,21.4,6.3,31.7c1.3,2.9-0.2,5.6-2.4,6.9
		c0.5,0.7,0.9,1.6,1.1,2.6c3.1,24.4,19.6,45.6,33.8,64.9c14.8,20,36.5,32.7,55.2,48.6c0.1,0.1,0.1,0.2,0.2,0.2
		c1.2-0.6,2.7-0.7,4.3,0c14.3,6.1,28.6,13.4,43.3,18.9c0.6-0.3,1.3-0.5,2.1-0.6c18.9-0.7,37.9-1.4,56.8-0.7c0.8-0.1,1.5-0.1,2.3-0.2
		c19.5-1.8,39.6-3.1,58.7-7.6c9-2.1,17.8-4.8,26.3-8.4c7.4-3.1,14.4-6.9,21.7-10c3.6-1.5,7.3-3.1,11.1-4.7c-1.4-1.7-1.6-4.2,0.6-6
		c13.6-11.2,29.2-19,44.6-27.2C381.6,346,385.8,339.7,390,333.4z M314.3,355.6c-3.7,2.1-11.5,6.9-17.2,10.7
		c-17.5,11.5-36.3,19.2-57.6,23.7c-7.5,1.6-14.6,2.2-28,2.5c-9.9,0.2-19.6,0.1-21.5-0.1c-22.4-2.6-51.2-11.9-70.5-22.7
		c-43.4-24.4-73.2-68.2-82.8-121.9c-3.6-19.7-4.2-32-2.5-49.2c2.5-23.7,5-32.2,16.2-54.9c9.7-19.4,17.3-31.1,28.2-43.6
		c32-36.2,71.7-55.8,119.9-59.1c30.7-2.1,53.1,2.6,84.7,17.8c23.1,11.2,47.1,30.3,62.3,49.7c2.1,2.8,5,6.2,6.4,7.8
		c1.4,1.5,2.6,3.3,2.7,4.1c0.1,0.8,1.5,3.4,3.2,5.8c3.7,5.4,8.5,14.8,7.8,15.5c-0.2,0.3-3.2-3.6-6.5-8.6
		c-18.7-27.8-49.5-50.9-81.1-60.9c-18.4-5.8-31-7.6-48.5-6.9c-47.6,2-88.3,22.2-116.4,57.7c-10.7,13.4-17.1,24.6-24.2,42.3
		c-4.1,10.2-4.5,11.7-3,11.7c1.3,0,23.3,13.4,30.1,18.3c11,8,19.2,17.5,41.5,48.7c12.2,17.1,33.5,43.7,37.9,47.4
		c6.4,5.5,16.5,11.8,24,15.1c7.1,3.1,18.1,5.8,20.6,5c3.1-1,3.2,1.3,0.4,6.6c-5.1,9.2-13.7,14.8-26.3,16.9
		c-4.3,0.7-9.9,0.9-13.4,0.5c-16.1-1.8-46.3-16.1-64.1-30.3c-8.3-6.6-8.4-6.7-9.1-6c-0.4,0.4,0.1,2.2,1,4.2
		c6.1,12.7,44.5,37.2,68,43.2c13.3,3.5,35.1,4.4,47.4,2.1c17.9-3.4,31.7-9.4,47.7-20.7c52.2-36.5,56.5-39.4,64.1-41.7
		c6.6-2,28.4-2.6,30.2-0.8c0.8,0.8-2.1,4.8-9.2,13C355.7,323.2,329.3,347.3,314.3,355.6z M255.5,333c0.3-0.5,1.3-1,2.1-1
		c0.8,0,6-3,11.5-6.6c10.2-6.6,19.2-14.9,38.9-36c11.5-12.2,19.2-16.6,29.9-17.2c6.4-0.3,14.1,1.6,14.1,3.6c0,1.4-37,28.1-52.8,38
		c-13.6,8.7-27.8,16.2-30.4,16.2c-0.7,0-2.1,0.8-3.2,1.8c-1.2,1-3.8,2.4-5.8,3c-6.5,2.2-7.6,2.3-7.1,0.1c0.3-1,0.9-1.7,1.3-1.4
		C254.5,333.8,255.1,333.6,255.5,333z M257.8,324.5c2-2.3,4.4-5.5,5.2-7.1c1.6-3.1,12.3-19.7,16.2-25.1c3.1-4.4,12.4-10.8,17.4-12.2
		c4.2-1.1,10-0.6,11,1.1c1.4,2.2-40.2,42.7-46.8,45.4c-2.1,0.9-3.8,1.9-3.8,2.3c0,0.4-0.7,0.8-1.5,0.8
		C253.4,329.7,253.5,329.3,257.8,324.5z"/>
</g>
<g id="layer103">
	<path fill="#FEFEFE" d="M192.6,433.1c-0.3-0.5-4.1-1.2-8.3-1.6c-4.3-0.4-8.2-1-8.8-1.5c-0.5-0.4-5.5-1.5-11-2.5
		c-5.5-0.9-10.5-2.1-11-2.5c-0.6-0.5-3.3-1.4-6-2.1c-2.8-0.6-5.4-1.5-6-1.9c-0.5-0.4-2.8-1.3-5-2c-2.2-0.7-8-3.3-13-5.8
		c-17.2-8.6-21.8-11.2-30.1-17.3c-2.7-2-5.4-3.8-6.1-4c-1.8-0.6-20-16.8-26.3-23.4c-9.5-9.8-18-19.9-18-21.2c0-0.7-0.9-1.8-2-2.5
		c-1.1-0.7-2-1.7-2-2.2s-1.1-2.4-2.5-4.2c-1.4-1.8-2.5-3.6-2.5-3.9c0-0.4-1.3-2.6-3-5c-1.6-2.4-3-4.8-3-5.3c0-0.6-0.3-1.2-0.7-1.4
		c-1-0.4-8.8-16.1-8.5-17c0.1-0.5-0.2-0.8-0.7-0.8s-1.2-1.5-1.5-3.3c-0.3-1.8-1.5-4.9-2.5-6.8c-1.1-2-2.3-5.3-2.6-7.3
		c-0.4-2-1.1-3.6-1.5-3.6c-0.4,0-1.3-2.9-2-6.5S6.4,271,6,271c-0.5,0-0.6-0.9-0.3-2.1c0.3-1.1,0.1-3-0.5-4.2c-1.3-2.7-3.2-14-3.2-19
		c0-2-0.4-3.9-1-4.2c-1.4-0.8-1.4-47.2,0-48c0.6-0.3,1-2.2,1-4.1c0-5,2-17.5,3.2-20c0.5-1.1,0.9-2.7,0.7-3.5
		c-0.1-0.8,0.3-2.7,0.9-4.2c0.7-1.6,1.2-3.7,1.2-4.8c0-1.1,0.8-3.9,1.9-6.2c1-2.3,2.2-5.7,2.6-7.4c0.3-1.8,1-3.3,1.5-3.3
		c0.4,0,1.1-1.5,1.4-3.4c0.4-1.9,2-6.1,3.6-9.3c1.6-3.2,3-6.5,3-7.4c0-0.8,1.3-3.3,2.9-5.5c2.9-3.9,6.2-9.4,8.9-14.9
		c0.9-1.6,4.2-6.3,7.4-10.2c3.2-4,5.8-7.6,5.8-7.9c0-0.4,1.6-2.1,3.5-4c1.9-1.8,3.5-3.7,3.5-4.2c0-0.4,4.2-4.8,9.3-9.7
		C77.5,50,79.7,48,80.8,48c0.5,0,1.6-0.7,2.3-1.7c1.7-1.9,11.5-9.3,12.5-9.3c0.4,0,3-1.7,5.8-3.8s7.8-5.1,11.1-6.7
		c3.3-1.5,6.4-3.4,6.8-4.2c0.4-0.7,1.6-1.3,2.6-1.3s3.9-1.1,6.4-2.4c2.6-1.3,7.3-3.1,10.4-4.1c3.2-1,6.3-2.1,6.8-2.5
		c0.6-0.4,3.2-1.3,6-1.9c2.7-0.7,5.4-1.6,6-2c0.5-0.5,4.8-1.4,9.5-2.2c4.7-0.7,8.7-1.6,9-1.9c1.1-1.5,22.2-3,41.1-3
		c19.3,0,38.3,1.4,40.4,3c0.6,0.4,4.9,1.4,9.8,2.1c4.8,0.7,8.7,1.6,8.7,2c0,0.4,1.7,1,3.8,1.4c2,0.4,5.1,1.3,6.7,2
		c1.7,0.7,4.8,1.9,7,2.5c2.2,0.7,10.9,4.6,19.3,8.8c19.7,9.8,20.2,10.1,20.2,11.3c0,0.5,0.5,0.9,1,0.9c3.2,0,25.4,17.6,36.5,29
		c3.5,3.6,9.9,10.6,14.2,15.6c7.1,8.3,8.8,10.6,13.3,18.3c0.8,1.4,1.9,2.9,2.3,3.2c1.8,1.3,17.1,31.9,19.2,38.4c0.9,2.8,2.2,6.4,3,8
		c0.7,1.7,1.7,4.8,2,7c0.4,2.2,1.1,4.5,1.6,5.1c0.4,0.5,1.4,4.4,2,8.5c0.7,4,1.6,7.9,2,8.5c0.5,0.6,1.2,4.6,1.5,8.8
		c0.4,4.2,1.1,7.9,1.5,8.2c1.2,0.7,1.2,47.4,0,47.4c-0.4,0-1.1,3.4-1.5,7.6c-0.3,4.3-1,8.2-1.5,8.8c-0.5,0.6-1.2,3.8-1.6,7.1
		c-0.4,3.3-1.3,7.4-2,9c-0.7,1.7-1.9,5.5-2.5,8.5c-0.7,3-1.8,6.2-2.5,7c-0.7,0.8-1.6,3.1-2,5s-1.3,4.6-2,6
		c-0.7,1.4-3.9,7.8-7.1,14.3c-7.4,14.7-9.1,17.9-10.1,18.6c-0.4,0.3-1.5,2-2.3,3.6c-0.8,1.7-2.1,3.4-2.7,3.8
		c-0.7,0.4-1.3,1.4-1.3,2.2c0,0.8-0.9,1.9-2,2.5s-2,1.7-2,2.5c0,0.8-0.9,2-2,2.7c-1.1,0.7-2,1.7-2,2.1c0,1.8-23,26.7-24.7,26.7
		c-0.3,0-2.7,1.9-5.2,4.3c-6.7,6.1-9.6,8.4-12.3,9.8c-1.2,0.6-2.5,1.5-2.8,1.8c-1.1,1.4-9.9,7.1-10.9,7.1c-0.5,0-1.4,0.6-1.8,1.4
		c-0.4,0.7-2.5,1.9-4.5,2.5c-2.1,0.7-3.8,1.6-3.8,2c0,0.4-1.8,1.4-4,2.1c-2.2,0.7-4,1.6-4,2c0,0.3-2.2,1.4-5,2.4c-2.7,1-5,2.1-5,2.5
		c0,0.4-2.5,1.4-5.5,2.1c-3,0.7-5.5,1.7-5.5,2.1s-1.7,1-3.8,1.4c-2.2,0.3-5,1.2-6.4,2c-1.5,0.7-7,2.1-12.5,3
		c-5.4,1-10.3,2.1-10.9,2.6c-0.5,0.4-4.7,1.1-9.2,1.5s-8.2,1.1-8.2,1.5C240,434.3,193.3,434.3,192.6,433.1z M239.5,390
		c21.3-4.5,40.1-12.2,57.6-23.7c5.7-3.8,13.5-8.6,17.2-10.7c15-8.3,41.4-32.4,62.4-57.1c7.1-8.2,10-12.2,9.2-13
		c-1.8-1.8-23.6-1.2-30.2,0.8c-7.6,2.3-11.9,5.2-64.1,41.7c-16,11.3-29.8,17.3-47.7,20.7c-12.3,2.3-34.1,1.4-47.4-2.1
		c-23.5-6-61.9-30.5-68-43.2c-0.9-2-1.4-3.8-1-4.2c0.7-0.7,0.8-0.6,9.1,6c17.8,14.2,48,28.5,64.1,30.3c3.5,0.4,9.1,0.2,13.4-0.5
		c12.6-2.1,21.2-7.7,26.3-16.9c2.8-5.3,2.7-7.6-0.4-6.6c-2.5,0.8-13.5-1.9-20.6-5c-7.5-3.3-17.6-9.6-24-15.1
		c-4.4-3.7-25.7-30.3-37.9-47.4c-22.3-31.2-30.5-40.7-41.5-48.7c-6.8-4.9-28.8-18.3-30.1-18.3c-1.5,0-1.1-1.5,3-11.7
		c7.1-17.7,13.5-28.9,24.2-42.3c28.1-35.5,68.8-55.7,116.4-57.7c17.5-0.7,30.1,1.1,48.5,6.9c31.7,10,62.5,33.2,81.1,61.1
		c7.2,10.7,6.8,10.2,7.3,9.6c0.6-0.6-4.9-11.4-8.6-16.7c-1.7-2.4-3.1-5-3.2-5.8s-1.3-2.6-2.7-4.1c-1.4-1.6-4.3-5-6.4-7.8
		c-15.2-19.4-39.2-38.5-62.3-49.7c-31.6-15.2-54-19.9-84.7-17.8c-48.2,3.3-87.9,22.9-119.9,59.1c-10.9,12.5-18.5,24.2-28.2,43.6
		c-11.2,22.7-13.7,31.2-16.2,54.9c-1.7,17.2-1.1,29.5,2.5,49.2c9.6,53.7,39.4,97.5,82.8,121.9c19.3,10.8,48.1,20.1,70.5,22.7
		c1.9,0.2,11.6,0.3,21.5,0.1C224.9,392.2,232,391.6,239.5,390z M259.8,334.8c2-0.6,4.6-2,5.8-3c1.1-1,2.5-1.8,3.2-1.8
		c2.6,0,16.8-7.5,30.4-16.2c15.8-9.9,52.8-36.6,52.8-38c0-2-7.7-3.9-14.1-3.6c-10.7,0.6-18.4,5-29.9,17.2
		c-19.7,21.1-28.7,29.4-38.9,36c-5.5,3.6-10.7,6.6-11.5,6.6s-1.8,0.5-2.1,1c-0.4,0.6-1.1,0.8-1.6,0.5c-0.5-0.4-0.9-0.4-0.9-0.1
		c0,0.2-0.3,1.1-0.6,2C251.7,337.1,253.5,337,259.8,334.8z M257,328.9c0-0.4,1.7-1.4,3.8-2.3c6.6-2.7,48.2-43.2,46.8-45.4
		c-1-1.7-6.8-2.2-11-1.1c-5,1.4-14.3,7.8-17.4,12.2c-3.9,5.4-14.6,22-16.2,25.1c-0.8,1.6-3.2,4.8-5.2,7.1c-4.3,4.8-4.4,5.2-2.3,5.2
		C256.3,329.7,257,329.3,257,328.9z M234.1,251.4c5.5-5.8,19.9-17.7,28.7-23.8c21-14.5,26.1-19.2,32.9-30.8
		c8.1-13.7,9.6-18.5,9.7-31.3c0-11.6-1.5-18.6-5.4-25c-2.5-4-9.3-10.4-15.1-14.1c-4.1-2.6-5.1-2.8-14.9-2.8c-9.5-0.1-20,1.7-20,3.3
		c0,0.3,4.4,0.6,9.8,0.7c10.8,0.1,15.8,1.5,23.5,6.7c4.7,3.2,8.8,9.7,11.6,18.6c1.2,3.8-0.1,18.2-2.2,23.6c-1.5,4-6.8,12.5-7.7,12.5
		c-0.4,0-1.1-2.1-1.5-4.7c-1.4-9.3-6.8-16.3-14.8-18.9c-4.2-1.4-5.8-1.5-10.4-0.5c-2.9,0.7-6.6,2.3-8.1,3.6
		c-6.1,5.1-9.7,18.4-6.2,22.7c1.7,2.1,1.7,2.1,2.2-2.6c0.7-6.2,3.8-9.6,8.8-9.6c4.5,0,7.6,2.2,9.5,6.7c4.1,9.7-0.9,18.1-19.3,32.5
		c-5.8,4.6-13.2,10.7-16.4,13.7c-6.9,6.4-6.4,6.5-18.4-3C191.1,213.5,174,192,174,183c0-2,0-2,3.3,0c3.6,2.2,10.8,2.7,15.4,0.9
		c5.8-2.2,11.3-9.3,11.3-14.6c0-3.5-3.1-10.2-5.8-12.6c-2.4-2.2-3.8-0.7-2.2,2.3c0.9,1.7,0.8,2.7-0.4,4.5c-2.2,3.3-5,3.9-8.5,1.9
		c-11-6.5-3-26.8,12.1-30.5c10.1-2.4,23.2,0.4,31.4,6.6c4,3.1,5.9,3.3,4.5,0.6c-2.7-4.9-11.9-13.6-17.1-16
		c-4.8-2.2-6.9-2.5-16.5-2.6c-9.8,0-11.6,0.3-16.5,2.6c-16,7.5-25.1,24.2-23.7,43.8c0.7,9.6,1.1,11.3,4.3,17.8
		c6.2,12.8,18.5,26.3,41.5,45.5c9.2,7.6,17.9,15.7,19.4,17.8c1.5,2.2,3.1,4,3.4,4C230.3,255,232.2,253.4,234.1,251.4z"/>
</g>
</svg>
