<?xml version="1.0" standalone="no"?>
<!DOCTYPE svg PUBLIC "-//W3C//DTD SVG 20010904//EN"
 "http://www.w3.org/TR/2001/REC-SVG-20010904/DTD/svg10.dtd">
<svg version="1.0" xmlns="http://www.w3.org/2000/svg"
 width="512.000000pt" height="512.000000pt" viewBox="0 0 512.000000 512.000000"
 preserveAspectRatio="xMidYMid meet">
<metadata>
Created by potrace 1.16, written by Peter Selinger 2001-2019
</metadata>
<g transform="translate(0.000000,512.000000) scale(0.100000,-0.100000)"
fill="#000000" stroke="none">
<path d="M2365 4960 c-828 -70 -1552 -548 -1938 -1280 -184 -348 -271 -708
-270 -1120 0 -391 74 -714 242 -1055 237 -483 612 -861 1086 -1095 233 -114
460 -187 715 -227 164 -25 560 -25 715 0 437 73 808 234 1140 495 90 71 316
297 387 387 212 270 374 602 454 930 59 245 80 587 50 839 -53 455 -222 865
-506 1227 -80 102 -258 283 -363 368 -277 224 -656 408 -987 479 -229 49 -515
70 -725 52z m446 -395 c776 -103 1419 -635 1663 -1376 169 -513 129 -1049
-115 -1533 -281 -557 -802 -952 -1421 -1076 -745 -149 -1543 162 -2001 782
-398 537 -504 1237 -285 1868 42 122 146 329 223 444 324 487 841 812 1416
890 137 18 387 19 520 1z"/>
<path d="M1630 3485 l-135 -135 395 -395 395 -395 -393 -393 -392 -392 135
-135 135 -135 393 393 392 392 390 -390 c214 -214 394 -390 400 -390 13 0 265
252 265 265 0 6 -176 186 -390 400 l-390 390 392 392 393 393 -135 135 -135
135 -392 -392 -393 -393 -393 393 c-215 215 -394 392 -397 392 -3 0 -66 -61
-140 -135z"/>
</g>
</svg>
