<?xml version="1.0" encoding="utf-8"?>
<!-- Generator: Adobe Illustrator 17.1.0, SVG Export Plug-In . SVG Version: 6.00 Build 0)  -->
<!DOCTYPE svg PUBLIC "-//W3C//DTD SVG 1.1//EN" "http://www.w3.org/Graphics/SVG/1.1/DTD/svg11.dtd">
<svg version="1.1" id="Layer_1" xmlns="http://www.w3.org/2000/svg" xmlns:xlink="http://www.w3.org/1999/xlink" x="0px" y="0px"
	 viewBox="0 0 45.5 42.5" enable-background="new 0 0 45.5 42.5" xml:space="preserve">
<path display="none" fill="#da624a" d="M4.7,43.8C-1.2,38.2-1.1,29,4.8,23.4L26,3.2c4.5-4.3,11.7-4.3,16.2,0c4.4,4.2,4.4,11,0,15.3
	L23.7,36c-3,2.9-7.9,2.8-10.9-0.1c-2.8-2.8-2.8-7.3,0.1-10.1l14.5-13.8c0.6-0.6,1.6-0.6,2.3,0l2.3,2.1c0.6,0.6,0.6,1.5,0,2.1
	L17.6,30.1c-0.5,0.5-0.5,1.3-0.1,1.7c0.4,0.4,1.1,0.4,1.6,0l18.4-17.6c2-1.9,2-5,0-6.8c-1.9-1.8-5-1.8-7,0L9.4,27.6
	c-3.5,3.3-3.6,8.8-0.1,12.1c3.4,3.3,9,3.3,12.4,0l17.3-16.5c0.6-0.6,1.6-0.6,2.3,0l2.3,2.1c0.6,0.6,0.6,1.5,0,2.1L26.3,43.9
	C20.3,49.6,10.6,49.5,4.7,43.8L4.7,43.8z"/>
<path fill="#da624a" d="M39.1,0.5l-37,19.9c-3.1,1.7-2.8,5.9,0.5,7.1l10.2,3.9v7c0,3.9,5.3,5.4,7.7,2.4l3.9-4.9l10,3.8
	c0.5,0.2,1.1,0.3,1.6,0.3c0.7,0,1.4-0.2,2.1-0.5c1.1-0.6,1.9-1.7,2.1-2.9l5.3-32.1C46,1.3,42.2-1.1,39.1,0.5L39.1,0.5z M17.1,38.5
	v-5.4l3.3,1.3L17.1,38.5z M36,36.1l-13.7-5.3l12.5-16.8c1-1.3-0.8-2.8-2.1-1.8L13.9,27.6l-9.6-3.7L41.3,4L36,36.1z"/>
</svg>
