<?xml version="1.0" encoding="utf-8"?>
<!-- Generator: Adobe Illustrator 17.1.0, SVG Export Plug-In . SVG Version: 6.00 Build 0)  -->
<!DOCTYPE svg PUBLIC "-//W3C//DTD SVG 1.1//EN" "http://www.w3.org/Graphics/SVG/1.1/DTD/svg11.dtd">
<svg version="1.1" id="Layer_1" xmlns="http://www.w3.org/2000/svg" xmlns:xlink="http://www.w3.org/1999/xlink" x="0px" y="0px"
	 viewBox="0 0 45.5 48" enable-background="new 0 0 45.5 48" xml:space="preserve">
<path fill="#da624a" d="M4.7,43.8C-1.2,38.2-1.1,29,4.8,23.4L26,3.2c4.5-4.3,11.7-4.3,16.2,0c4.4,4.2,4.4,11,0,15.3L23.7,36
	c-3,2.9-7.9,2.8-10.9-0.1c-2.8-2.8-2.8-7.3,0.1-10.1l14.5-13.8c0.6-0.6,1.6-0.6,2.3,0l2.3,2.1c0.6,0.6,0.6,1.5,0,2.1L17.6,30.1
	c-0.5,0.5-0.5,1.3-0.1,1.7c0.4,0.4,1.1,0.4,1.6,0l18.4-17.6c2-1.9,2-5,0-6.8c-1.9-1.8-5-1.8-7,0L9.4,27.6c-3.5,3.3-3.6,8.8-0.1,12.1
	c3.4,3.3,9,3.3,12.4,0l17.3-16.5c0.6-0.6,1.6-0.6,2.3,0l2.3,2.1c0.6,0.6,0.6,1.5,0,2.1L26.3,43.9C20.3,49.6,10.6,49.5,4.7,43.8
	L4.7,43.8z"/>
</svg>
