<?xml version="1.0" encoding="utf-8"?>
<!-- Generator: Adobe Illustrator 17.1.0, SVG Export Plug-In . SVG Version: 6.00 Build 0)  -->
<!DOCTYPE svg PUBLIC "-//W3C//DTD SVG 1.1//EN" "http://www.w3.org/Graphics/SVG/1.1/DTD/svg11.dtd">
<svg version="1.1" id="Layer_1" xmlns="http://www.w3.org/2000/svg" xmlns:xlink="http://www.w3.org/1999/xlink" x="0px" y="0px"
	 viewBox="0 0 45.5 34.4" enable-background="new 0 0 45.5 34.4" xml:space="preserve">
<path display="none" fill="#da624a" d="M4.7,39.9c-5.9-5.7-5.8-14.8,0.1-20.5L26-0.7C30.4-5,37.7-5,42.2-0.7c4.4,4.2,4.4,11,0,15.3
	L23.7,32.1c-3,2.9-7.9,2.8-10.9-0.1C10,29.2,10.1,24.7,13,22L27.5,8.2c0.6-0.6,1.6-0.6,2.3,0l2.3,2.1c0.6,0.6,0.6,1.5,0,2.1
	L17.6,26.2c-0.5,0.5-0.5,1.3-0.1,1.7c0.4,0.4,1.1,0.4,1.6,0l18.4-17.6c2-1.9,2-5,0-6.8c-1.9-1.8-5-1.8-7,0L9.4,23.7
	C5.9,27,5.9,32.4,9.3,35.7c3.4,3.3,9,3.3,12.4,0l17.3-16.5c0.6-0.6,1.6-0.6,2.3,0l2.3,2.1c0.6,0.6,0.6,1.5,0,2.1L26.3,40
	C20.3,45.7,10.6,45.6,4.7,39.9L4.7,39.9z"/>
<path display="none" fill="#da624a" d="M39.1-3.4l-37,19.9c-3.1,1.7-2.8,5.9,0.5,7.1l10.2,3.9v7c0,3.9,5.3,5.4,7.7,2.4l3.9-4.9
	l10,3.8c0.5,0.2,1.1,0.3,1.6,0.3c0.7,0,1.4-0.2,2.1-0.5c1.1-0.6,1.9-1.7,2.1-2.9l5.3-32.1C46-2.6,42.2-5,39.1-3.4L39.1-3.4z
	 M17.1,34.6v-5.4l3.3,1.3L17.1,34.6z M36,32.2l-13.7-5.3l12.5-16.8c1-1.3-0.8-2.8-2.1-1.8L13.9,23.7L4.3,20l37-19.9L36,32.2z"/>
<g>
	<path fill="#da624a" d="M0,5.6v28.7h45.5V5.6H0z M22.8,29.4c-5.6,0-10.2-4.3-10.2-9.5c0-5.3,4.5-9.5,10.2-9.5
		c5.6,0,10.2,4.2,10.2,9.5C33,25.1,28.4,29.4,22.8,29.4z"/>
	<rect x="16.1" y="0.3" fill="#da624a" width="13.3" height="4.1"/>
</g>
</svg>
