<?xml version="1.0" encoding="utf-8"?>
<!-- Generator: Adobe Illustrator 17.1.0, SVG Export Plug-In . SVG Version: 6.00 Build 0)  -->
<!DOCTYPE svg PUBLIC "-//W3C//DTD SVG 1.1//EN" "http://www.w3.org/Graphics/SVG/1.1/DTD/svg11.dtd">
<svg version="1.1" xmlns="http://www.w3.org/2000/svg" xmlns:xlink="http://www.w3.org/1999/xlink" x="0px" y="0px"
	 viewBox="0 0 48 38.8" enable-background="new 0 0 48 38.8" xml:space="preserve">
<g id="Layer_1" display="none">
</g>
<g id="Layer_3" display="none">
	<path display="inline" fill="#da624a" d="M24,0.4c-14.4,0-24,12-24,24c0,4.8,2.4,9.6,2.4,12l2.4,2.4h38.4c0,0,2.4,0,2.4-2.4
		c2.4-4.8,2.4-7.2,2.4-12C48,12.4,36,0.4,24,0.4 M24,5.2c2.4,0,2.4,0,2.4,2.4V10H24c-2.4,0-2.4-2.4-2.4-2.4
		C19.2,7.6,21.6,5.2,24,5.2 M7.2,31.6c-2.4,0-2.4-2.4-2.4-2.4c0-2.4,2.4-2.4,2.4-2.4l2.4,2.4L7.2,31.6z M12,17.2
		c-2.4,0-2.4-2.4-2.4-2.4c0-2.4,2.4-2.4,2.4-2.4l2.4,2.4L12,17.2z M31.2,10l-4.8,16.8c0,0,2.4,2.4,2.4,4.8v2.4h-9.6v-2.4
		c0-2.4,2.4-4.8,4.8-4.8L28.8,10l2.4-2.4V10z M33.6,14.8L36,10c2.4,0,2.4,2.4,2.4,2.4C38.4,14.8,36,17.2,33.6,14.8
		C33.6,17.2,33.6,17.2,33.6,14.8 M38.4,31.6c-2.4,0-2.4-2.4-2.4-2.4c0-2.4,2.4-2.4,2.4-2.4l2.4,2.4C43.2,29.2,40.8,31.6,38.4,31.6"
		/>
</g>
<g id="Layer_4">
	<path fill="#BAC5E9" d="M34.7,14.7c0-7.4-7.8-13.3-17.3-13.3C7.8,1.4,0,7.3,0,14.7c0,2.9,1.2,5.5,3.2,7.7c-1.1,2.5-3,4.5-3,4.6
		c-0.2,0.2-0.2,0.5-0.1,0.7c0.1,0.3,0.3,0.4,0.6,0.4c3,0,5.6-1,7.4-2.1c2.7,1.3,5.9,2.1,9.3,2.1C26.9,28.1,34.7,22.1,34.7,14.7
		 M44.9,33.1c2-2.2,3.2-4.8,3.2-7.7C48,19.8,43.6,15,37.3,13c0.1,0.6,0.1,1.1,0.1,1.7c0,8.8-9,16-20,16c-0.9,0-1.8-0.1-2.6-0.2
		c2.6,4.8,8.8,8.2,16,8.2c3.4,0,6.6-0.8,9.3-2.1c1.8,1.1,4.3,2.1,7.4,2.1c0.3,0,0.5-0.2,0.6-0.4c0.1-0.2,0.1-0.5-0.1-0.7
		C47.8,37.6,46,35.6,44.9,33.1"/>
</g>
<g id="Layer_5" display="none">
	<path display="inline" fill="#BAC5E9" d="M45.8,28.2c0.2-1.1,0.2-2.1,0-3.2l1.9-1.1c0.2-0.1,0.3-0.4,0.2-0.6
		c-0.5-1.6-1.4-3.1-2.5-4.3c-0.2-0.2-0.5-0.2-0.7-0.1L42.8,20c-0.8-0.7-1.8-1.2-2.8-1.6v-2.2c0-0.3-0.2-0.5-0.4-0.5
		c-1.7-0.4-3.4-0.4-5,0c-0.2,0.1-0.4,0.3-0.4,0.5v2.2c-1,0.4-1.9,0.9-2.8,1.6l-1.9-1.1c-0.2-0.1-0.5-0.1-0.7,0.1
		c-1.1,1.2-2,2.7-2.5,4.3c-0.1,0.2,0,0.5,0.2,0.6l1.9,1.1c-0.2,1.1-0.2,2.1,0,3.2l-1.9,1.1c-0.2,0.1-0.3,0.4-0.2,0.6
		c0.5,1.6,1.4,3.1,2.5,4.3c0.2,0.2,0.5,0.2,0.7,0.1l1.9-1.1c0.8,0.7,1.8,1.2,2.8,1.6v2.2c0,0.3,0.2,0.5,0.4,0.5c1.7,0.4,3.4,0.4,5,0
		c0.2-0.1,0.4-0.3,0.4-0.5v-2.2c1-0.4,1.9-0.9,2.8-1.6l1.9,1.1c0.2,0.1,0.5,0.1,0.7-0.1c1.1-1.2,2-2.7,2.5-4.3
		c0.1-0.2,0-0.5-0.2-0.6L45.8,28.2z M37.2,30.3c-2,0-3.6-1.6-3.6-3.6c0-2,1.6-3.6,3.6-3.6c2,0,3.6,1.6,3.6,3.6
		C40.8,28.6,39.2,30.3,37.2,30.3 M16.8,19.5c5.3,0,9.6-4.3,9.6-9.6c0-5.3-4.3-9.6-9.6-9.6c-5.3,0-9.6,4.3-9.6,9.6
		C7.2,15.2,11.5,19.5,16.8,19.5 M31.9,36.4c-0.2-0.1-0.3-0.2-0.5-0.3l-0.6,0.3c-0.4,0.2-1,0.4-1.5,0.4c-0.8,0-1.6-0.3-2.2-0.9
		c-1.4-1.5-2.4-3.3-3-5.2c-0.4-1.3,0.1-2.7,1.3-3.4l0.6-0.3c0-0.2,0-0.4,0-0.6L25.5,26c-1.2-0.7-1.8-2.1-1.3-3.4
		c0.1-0.2,0.2-0.4,0.2-0.7c-0.3,0-0.6-0.1-0.9-0.1h-1.3c-1.7,0.8-3.5,1.2-5.5,1.2s-3.8-0.4-5.5-1.2h-1.2C4.5,21.8,0,26.4,0,31.9V35
		c0,2,1.6,3.6,3.6,3.6H30c0.8,0,1.5-0.2,2-0.6c-0.1-0.3-0.2-0.6-0.2-0.9V36.4z"/>
</g>
<g id="Layer_2" display="none">
	<g display="inline">
		<path fill="#BAC5E9" d="M24,0.4c6.2,0,11.2,5,11.2,11.2s-5,11.2-11.2,11.2c-6.2,0-11.2-5-11.2-11.2S17.8,0.4,24,0.4"/>
		<path fill="#BAC5E9" d="M39.6,38.4H8.4c0-8.9,6.7-15.6,15.6-15.6C32.9,22.7,39.6,29.4,39.6,38.4"/>
	</g>
</g>
</svg>
