<svg id="Layer_1" data-name="Layer 1" xmlns="http://www.w3.org/2000/svg" viewBox="0 0 300 300"><defs><style>.cls-1{fill:#294e58;}</style></defs><path class="cls-1" d="M0,150V300H300V0H0ZM153.1,45.6a10.14,10.14,0,0,1,4.3,4.4l1.2,2.9,17.4.5c34.7,1,52.8,5.8,65,17.2,7.8,7.3,10.6,16.5,8.7,28.9l-.7,5,4.1,2.5a19.82,19.82,0,0,1,9.6,14.5c.9,7.9-5,17.2-16.2,25.2l-2.9,2.1L248,150c13.4,3.6,22,12,22,21.3-.1,7.5-7.8,17.4-19.3,24.5l-5.8,3.5,3.7,2.1c6.3,3.6,9.7,8.7,10.2,15.5.5,6.3-.8,9.7-6,16.3-5.9,7.6-30,22.7-36.1,22.8-4.2,0-8.7-4.9-8.7-9.5s2.8-7.3,14.5-14c8.4-4.8,17.5-11.8,17.5-13.5,0-1.4-9.4-4.7-18-6.3-10.3-2-26.2-3.4-47.2-4.3l-15.8-.6v39.4l-2.9,2.9c-4.1,4-9.1,4-13.2,0l-2.9-2.9V207.8l-16.2.7C85.6,210,59,214.5,59,219.4c0,2.3,10.3,10,20.2,15.1,4.8,2.5,9.4,5.5,10.3,6.8,3.1,4.4,1.2,10.9-4.2,13.6-3.5,1.8-5.5,1.3-13.9-3C50.9,241.3,39.9,229.5,39.7,218c-.1-6.4,2.9-11.8,8.6-15.7l4.7-3.2-7.5-5.2c-8.4-5.8-14.9-13.2-16.6-18.9-3.1-10.4,4.6-20.5,18.9-24.6l5.3-1.6-7-6.4c-3.8-3.5-7.9-8.4-9-10.7-4.6-9.5-1.4-20.1,7.4-24.8,4.3-2.3,4.5-2.6,3.8-5.4-.5-1.7-.8-6.4-.8-10.5.1-5.8.6-8.5,2.4-11.8,5.4-10.5,17.5-18.1,34.7-22.1,10.2-2.3,35.9-4.5,47-3.9,5.8.3,7.4,0,7.4-1,0-2.2,6.6-8.2,8.9-8.2A13.32,13.32,0,0,1,153.1,45.6Z" transform="translate(0 0)"/><path class="cls-1" d="M100.6,73.6c-24,3.2-34.9,10-33.1,20.6l.7,4,4.7-.6a283,283,0,0,1,37.6-3.1c9.4-.3,19.8-.8,23.3-1.1l6.2-.6V72l-14.7.1A233.56,233.56,0,0,0,100.6,73.6Z" transform="translate(0 0)"/><path class="cls-1" d="M160,82.4V92.8l6.3.6c3.4.3,13.6.7,22.7,1s21,1.1,26.5,1.7c15.7,1.9,15.8,1.9,16.8-1.8,3.8-13-20.8-22.3-59.4-22.3H160Z" transform="translate(0 0)"/><path class="cls-1" d="M104,113.7c-1.9.1-8.7.8-15,1.4-12.6,1.1-26.3,4-31.1,6.5l-3.1,1.6,2.3,2.5c3.1,3.2,13.7,10.2,21.6,14.2l6.1,3,27.6-.6,27.6-.6V113l-16.2.2C114.8,113.2,105.9,113.5,104,113.7Z" transform="translate(0 0)"/><path class="cls-1" d="M160,127.2v14.5l27.6.6,27.6.6,6.1-3c7.9-4,18.5-11,21.6-14.2l2.3-2.5-3-1.6c-9-4.6-29.1-7.4-59.9-8.3l-22.3-.6Z" transform="translate(0 0)"/><path class="cls-1" d="M159,174.2v14.5l18.7.7c10.3.4,23.1,1.1,28.6,1.6l9.9,1,8.7-4.1c9.8-4.7,20.5-11.5,23.9-15.1l2.3-2.5-4-1.6c-10.8-4.4-33.5-7.1-67.8-8.3l-20.3-.7Z" transform="translate(0 0)"/><path class="cls-1" d="M104,161.7c-35.6,2.5-56.1,6.4-54.7,10.6.6,1.8,10.3,8.1,22.5,14.6L83,192.8l6.8-.9c3.7-.5,16.5-1.2,28.5-1.5l21.7-.7V161l-15.7.2C115.6,161.3,106.5,161.5,104,161.7Z" transform="translate(0 0)"/></svg>