<?xml version="1.0" encoding="utf-8"?>
<!-- Generator: Adobe Illustrator 17.1.0, SVG Export Plug-In . SVG Version: 6.00 Build 0)  -->
<!DOCTYPE svg PUBLIC "-//W3C//DTD SVG 1.1//EN" "http://www.w3.org/Graphics/SVG/1.1/DTD/svg11.dtd">
<svg version="1.1" id="Layer_1" xmlns="http://www.w3.org/2000/svg" xmlns:xlink="http://www.w3.org/1999/xlink" x="0px" y="0px"
	 viewBox="0 0 45 45" enable-background="new 0 0 45 45" xml:space="preserve">
<path fill="#da624a" d="M40.2,0H4.8C2.2,0,0,2.2,0,4.8v35.4C0,42.9,2.2,45,4.8,45h35.4c2.7,0,4.8-2.2,4.8-4.8V4.8
	C45,2.2,42.9,0,40.2,0z M37,25.3c0,0.7-0.5,1.2-1.2,1.2h-9.3v9.3c0,0.7-0.5,1.2-1.2,1.2h-5.6c-0.7,0-1.2-0.5-1.2-1.2v-9.3H9.3
	C8.6,26.5,8,26,8,25.3v-5.6c0-0.7,0.5-1.2,1.2-1.2h9.3V9.3C18.5,8.6,19,8,19.7,8h5.6c0.7,0,1.2,0.5,1.2,1.2v9.3h9.3
	c0.7,0,1.2,0.5,1.2,1.2V25.3z"/>
</svg>
