<?xml version="1.0" encoding="utf-8"?>
<!-- Generator: Adobe Illustrator 17.1.0, SVG Export Plug-In . SVG Version: 6.00 Build 0)  -->
<!DOCTYPE svg PUBLIC "-//W3C//DTD SVG 1.1//EN" "http://www.w3.org/Graphics/SVG/1.1/DTD/svg11.dtd">
<svg version="1.1" id="Layer_1" xmlns="http://www.w3.org/2000/svg" xmlns:xlink="http://www.w3.org/1999/xlink" x="0px" y="0px"
	 viewBox="0 0 48 42.9" enable-background="new 0 0 48 42.9" xml:space="preserve">
<path fill="#da624a" d="M33.5,28.9l2.7-2.7c0.4-0.4,1.2-0.1,1.2,0.4v12.2c0,2.2-1.8,4.1-4.1,4.1H4.1C1.8,42.7,0,40.9,0,38.8V9.4
	c0-2.2,1.8-4.1,4.1-4.1h22.8c0.6,0,0.9,0.7,0.4,1.2l-2.7,2.7c-0.1,0.1-0.3,0.2-0.4,0.2H4.1v29.3h29.3v-9.5
	C33.4,29.1,33.4,29,33.5,28.9z M46.6,12l-22,21.9l-7.6,0.9c-2.1,0.2-4.1-1.6-3.8-3.8l0.9-7.6l22-21.9c1.9-1.9,5-1.9,6.9,0l3.6,3.6
	C48.4,7,48.4,10.1,46.6,12z M38.3,14.6l-4.8-4.8L18,25.2l-0.6,5.4l5.4-0.6L38.3,14.6z M43.7,7.9l-3.6-3.6c-0.3-0.3-0.9-0.3-1.3,0
	l-2.6,2.6l4.8,4.8l2.7-2.6C44.1,8.8,44.1,8.3,43.7,7.9z"/>
</svg>
