<?xml version="1.0" encoding="utf-8"?>
<!-- Generator: Adobe Illustrator 17.1.0, SVG Export Plug-In . SVG Version: 6.00 Build 0)  -->
<!DOCTYPE svg PUBLIC "-//W3C//DTD SVG 1.1//EN" "http://www.w3.org/Graphics/SVG/1.1/DTD/svg11.dtd">
<svg version="1.1" id="Layer_1" xmlns="http://www.w3.org/2000/svg" xmlns:xlink="http://www.w3.org/1999/xlink" x="0px" y="0px"
	 viewBox="0 0 45 45" enable-background="new 0 0 45 45" xml:space="preserve">
<path fill="#da624a" d="M35.4,20.9v3.2c0,0.7-0.5,1.2-1.2,1.2h-8.8v8.8c0,0.7-0.5,1.2-1.2,1.2h-3.2c-0.7,0-1.2-0.5-1.2-1.2v-8.8
	h-8.8c-0.7,0-1.2-0.5-1.2-1.2v-3.2c0-0.7,0.5-1.2,1.2-1.2h8.8v-8.8c0-0.7,0.5-1.2,1.2-1.2h3.2c0.7,0,1.2,0.5,1.2,1.2v8.8h8.8
	C34.8,19.7,35.4,20.3,35.4,20.9z M45,4.8v35.4c0,2.7-2.2,4.8-4.8,4.8H4.8C2.2,45,0,42.9,0,40.2V4.8C0,2.2,2.2,0,4.8,0h35.4
	C42.9,0,45,2.2,45,4.8z M40.2,39.6V5.4c0-0.3-0.3-0.6-0.6-0.6H5.4c-0.3,0-0.6,0.3-0.6,0.6v34.2c0,0.3,0.3,0.6,0.6,0.6h34.2
	C39.9,40.2,40.2,39.9,40.2,39.6z"/>
</svg>
