<?xml version="1.0" encoding="utf-8"?>
<!-- Generator: Adobe Illustrator 17.1.0, SVG Export Plug-In . SVG Version: 6.00 Build 0)  -->
<!DOCTYPE svg PUBLIC "-//W3C//DTD SVG 1.1//EN" "http://www.w3.org/Graphics/SVG/1.1/DTD/svg11.dtd">
<svg version="1.1" id="Layer_1" xmlns="http://www.w3.org/2000/svg" xmlns:xlink="http://www.w3.org/1999/xlink" x="0px" y="0px"
	 viewBox="0 0 45 45" enable-background="new 0 0 45 45" xml:space="preserve">
<circle fill="#FCDBD9" cx="22.5" cy="22.5" r="22.5"/>
<path display="none" fill="#da624a" d="M23.4,19v-3.9h-5.8c-0.4,0-0.7,0.3-0.7,0.7v13.4c0,0.4,0.3,0.7,0.7,0.7h9.7
	c0.4,0,0.7-0.3,0.7-0.7v-9.4h-3.9C23.7,19.7,23.4,19.4,23.4,19z M25.3,25.8c0,0.2-0.2,0.3-0.3,0.3h-4.8c-0.2,0-0.3-0.2-0.3-0.3v-0.2
	c0-0.2,0.2-0.3,0.3-0.3h4.8c0.2,0,0.3,0.2,0.3,0.3V25.8z M25.3,23.9c0,0.2-0.2,0.3-0.3,0.3h-4.8c-0.2,0-0.3-0.2-0.3-0.3v-0.2
	c0-0.2,0.2-0.3,0.3-0.3h4.8c0.2,0,0.3,0.2,0.3,0.3V23.9z M25.3,21.9v0.2c0,0.2-0.2,0.3-0.3,0.3h-4.8c-0.2,0-0.3-0.2-0.3-0.3v-0.2
	c0-0.2,0.2-0.3,0.3-0.3h4.8C25.1,21.5,25.3,21.7,25.3,21.9z M28,18.6v0.2h-3.7v-3.7h0.2c0.2,0,0.4,0.1,0.5,0.2l2.8,2.8
	C28,18.2,28,18.4,28,18.6z"/>
<path fill="#da624a" d="M27.2,25.7h0.7c0.2,0,0.4-0.2,0.4-0.4v-7.6c0-0.2-0.2-0.4-0.4-0.4h-0.7c-0.2,0-0.4,0.2-0.4,0.4v7.6
	C26.7,25.5,27,25.7,27.2,25.7z M20.8,25.7h0.7c0.2,0,0.4-0.2,0.4-0.4v-6.6c0-0.2-0.2-0.4-0.4-0.4h-0.7c-0.2,0-0.4,0.2-0.4,0.4v6.6
	C20.4,25.5,20.6,25.7,20.8,25.7z M24,25.7h0.7c0.2,0,0.4-0.2,0.4-0.4v-4.5c0-0.2-0.2-0.4-0.4-0.4H24c-0.2,0-0.4,0.2-0.4,0.4v4.5
	C23.6,25.5,23.8,25.7,24,25.7z M30.5,27.3H15.6V16.7c0-0.3-0.2-0.5-0.5-0.5h-0.5c-0.3,0-0.5,0.2-0.5,0.5v11.1c0,0.6,0.5,1.1,1.1,1.1
	h15.4c0.3,0,0.5-0.2,0.5-0.5v-0.5C31,27.5,30.8,27.3,30.5,27.3z M17.6,25.7h0.7c0.2,0,0.4-0.2,0.4-0.4v-2.3c0-0.2-0.2-0.4-0.4-0.4
	h-0.7c-0.2,0-0.4,0.2-0.4,0.4v2.3C17.2,25.5,17.4,25.7,17.6,25.7z"/>
</svg>
