<?xml version="1.0" encoding="utf-8"?>
<!-- Generator: Adobe Illustrator 17.1.0, SVG Export Plug-In . SVG Version: 6.00 Build 0)  -->
<!DOCTYPE svg PUBLIC "-//W3C//DTD SVG 1.1//EN" "http://www.w3.org/Graphics/SVG/1.1/DTD/svg11.dtd">
<svg version="1.1" id="Layer_1" xmlns="http://www.w3.org/2000/svg" xmlns:xlink="http://www.w3.org/1999/xlink" x="0px" y="0px"
	 viewBox="0 0 39.6 39.4" enable-background="new 0 0 39.6 39.4" xml:space="preserve">
<path display="none" fill="#da624a" d="M40.4,2.9c-5.1-4.3-13-3.6-17.9,1.3c-4.9-5-12.8-5.6-17.9-1.3c-6.6,5.6-5.7,14.7-0.9,19.5
	l15.5,15.8c0.9,0.9,2.1,1.4,3.3,1.4c1.3,0,2.4-0.5,3.3-1.4l15.5-15.8C46.1,17.5,47.1,8.4,40.4,2.9z M38.3,19.4L22.9,35.1
	c-0.2,0.2-0.4,0.2-0.6,0L6.8,19.4C3.6,16.1,2.9,9.9,7.5,6.1c3.4-2.9,8.7-2.5,12,0.9l3.1,3.1L25.7,7c3.3-3.4,8.6-3.8,12-0.9
	C42.2,9.9,41.5,16.1,38.3,19.4L38.3,19.4z"/>
<path fill="#da624a" d="M34.6,8.7c-2.6,0-4.8,2.2-4.9,4.8c0,1.9,1,3.5,2.5,4.4v8.7c0,4.4-3.9,8-8.7,8c-4.6,0-8.4-3.4-8.6-7.7
	c5.6-1.2,9.9-6.2,9.9-12.1v-12c0-0.9-0.6-1.6-1.5-1.8l-4.9-1c-1-0.2-2,0.4-2.2,1.5l-0.2,1.2c-0.2,1,0.4,2,1.5,2.2l2.4,0.5v9.4
	c0,4.1-3.3,7.5-7.3,7.5c-4.1,0-7.5-3.3-7.5-7.4V5.4l2.4-0.5c1-0.2,1.7-1.2,1.5-2.2L8.5,1.5C8.3,0.5,7.3-0.2,6.3,0L1.5,1
	C0.6,1.2,0,1.9,0,2.8v12c0,6,4.3,11,9.9,12.1c0.2,7,6.2,12.6,13.6,12.6c7.5,0,13.6-5.8,13.6-13v-8.7c1.5-0.9,2.5-2.4,2.5-4.3
	C39.6,10.8,37.3,8.6,34.6,8.7z M34.6,14.8c-0.7,0-1.2-0.6-1.2-1.2s0.6-1.2,1.2-1.2s1.2,0.6,1.2,1.2S35.3,14.8,34.6,14.8z"/>
</svg>
