<?xml version="1.0" encoding="utf-8"?>
<!-- Generator: Adobe Illustrator 17.1.0, SVG Export Plug-In . SVG Version: 6.00 Build 0)  -->
<!DOCTYPE svg PUBLIC "-//W3C//DTD SVG 1.1//EN" "http://www.w3.org/Graphics/SVG/1.1/DTD/svg11.dtd">
<svg version="1.1" id="Layer_1" xmlns="http://www.w3.org/2000/svg" xmlns:xlink="http://www.w3.org/1999/xlink" x="0px" y="0px"
	 viewBox="0 0 24 24" enable-background="new 0 0 24 24" xml:space="preserve">
<path fill="#da624a" d="M9,13.3H7.4c-0.3,0-0.5-0.2-0.5-0.5v-1.6c0-0.3,0.2-0.5,0.5-0.5H9c0.3,0,0.5,0.2,0.5,0.5v1.6
	C9.5,13.1,9.2,13.3,9,13.3z M13.3,12.8v-1.6c0-0.3-0.2-0.5-0.5-0.5h-1.6c-0.3,0-0.5,0.2-0.5,0.5v1.6c0,0.3,0.2,0.5,0.5,0.5h1.6
	C13.1,13.3,13.3,13.1,13.3,12.8z M17.1,12.8v-1.6c0-0.3-0.2-0.5-0.5-0.5H15c-0.3,0-0.5,0.2-0.5,0.5v1.6c0,0.3,0.2,0.5,0.5,0.5h1.6
	C16.9,13.3,17.1,13.1,17.1,12.8z M13.3,16.6V15c0-0.3-0.2-0.5-0.5-0.5h-1.6c-0.3,0-0.5,0.2-0.5,0.5v1.6c0,0.3,0.2,0.5,0.5,0.5h1.6
	C13.1,17.1,13.3,16.9,13.3,16.6z M9.5,16.6V15c0-0.3-0.2-0.5-0.5-0.5H7.4c-0.3,0-0.5,0.2-0.5,0.5v1.6c0,0.3,0.2,0.5,0.5,0.5H9
	C9.2,17.1,9.5,16.9,9.5,16.6z M17.1,16.6V15c0-0.3-0.2-0.5-0.5-0.5H15c-0.3,0-0.5,0.2-0.5,0.5v1.6c0,0.3,0.2,0.5,0.5,0.5h1.6
	C16.9,17.1,17.1,16.9,17.1,16.6z M20.9,6.3v14c0,1.1-0.8,1.9-1.9,1.9H5c-1.1,0-1.9-0.8-1.9-1.9v-14C3.1,5.2,4,4.4,5,4.4h1.9V2.3
	c0-0.3,0.2-0.5,0.5-0.5H9c0.3,0,0.5,0.2,0.5,0.5v2.1h5.1V2.3c0-0.3,0.2-0.5,0.5-0.5h1.6c0.3,0,0.5,0.2,0.5,0.5v2.1H19
	C20,4.4,20.9,5.2,20.9,6.3z M19,20V8.2H5V20c0,0.1,0.1,0.3,0.3,0.3h13.5C18.9,20.3,19,20.1,19,20z"/>
</svg>
