<?xml version="1.0" encoding="utf-8"?>
<!-- Generator: Adobe Illustrator 17.1.0, SVG Export Plug-In . SVG Version: 6.00 Build 0)  -->
<!DOCTYPE svg PUBLIC "-//W3C//DTD SVG 1.1//EN" "http://www.w3.org/Graphics/SVG/1.1/DTD/svg11.dtd">
<svg version="1.1" id="Layer_1" xmlns="http://www.w3.org/2000/svg" xmlns:xlink="http://www.w3.org/1999/xlink" x="0px" y="0px"
	 viewBox="0 0 48 48" enable-background="new 0 0 48 48" xml:space="preserve">
<path fill="#da624a" d="M42.8,0H5.1C2.3,0,0,2.3,0,5.1v37.6c0,2.8,2.3,5.1,5.1,5.1h37.6c2.8,0,5.1-2.3,5.1-5.1V5.1
	C47.9,2.3,45.6,0,42.8,0z M42.1,42.8H5.8c-0.4,0-0.6-0.3-0.6-0.6V5.8c0-0.4,0.3-0.6,0.6-0.6h36.3c0.4,0,0.6,0.3,0.6,0.6v36.3
	C42.8,42.5,42.5,42.8,42.1,42.8z"/>
</svg>
