<?xml version="1.0" encoding="utf-8"?>
<!-- Generator: Adobe Illustrator 17.1.0, SVG Export Plug-In . SVG Version: 6.00 Build 0)  -->
<!DOCTYPE svg PUBLIC "-//W3C//DTD SVG 1.1//EN" "http://www.w3.org/Graphics/SVG/1.1/DTD/svg11.dtd">
<svg version="1.1" id="Layer_1" xmlns="http://www.w3.org/2000/svg" xmlns:xlink="http://www.w3.org/1999/xlink" x="0px" y="0px"
	 viewBox="0 0 48 48" enable-background="new 0 0 48 48" xml:space="preserve">
<path fill="#da624a" d="M42.9,0H5.1C2.3,0,0,2.3,0,5.1v37.7C0,45.7,2.3,48,5.1,48h37.7c2.8,0,5.1-2.3,5.1-5.1V5.1
	C48,2.3,45.7,0,42.9,0z M42.9,42.9H5.1V5.1h37.7V42.9z M39,17L20.5,35.3c-0.5,0.5-1.3,0.5-1.8,0L9,25.5c-0.5-0.5-0.5-1.3,0-1.8
	l2.4-2.4c0.5-0.5,1.3-0.5,1.8,0l6.4,6.5l15.1-15c0.5-0.5,1.3-0.5,1.8,0l2.4,2.4C39.5,15.6,39.5,16.5,39,17z"/>
</svg>
