<?xml version="1.0" encoding="utf-8"?>
<!-- Generator: Adobe Illustrator 17.1.0, SVG Export Plug-In . SVG Version: 6.00 Build 0)  -->
<!DOCTYPE svg PUBLIC "-//W3C//DTD SVG 1.1//EN" "http://www.w3.org/Graphics/SVG/1.1/DTD/svg11.dtd">
<svg version="1.1" id="Layer_1" xmlns="http://www.w3.org/2000/svg" xmlns:xlink="http://www.w3.org/1999/xlink" x="0px" y="0px"
	 viewBox="0 0 45 30" enable-background="new 0 0 45 30" xml:space="preserve">
<path display="none" fill="#da624a" d="M15.3,32.9L0.7,18.3c-0.9-0.9-0.9-2.3,0-3.2l3.2-3.2C4.7,11,6.2,11,7,11.9l9.9,9.9L38,0.7
	c0.9-0.9,2.3-0.9,3.2,0l3.2,3.2c0.9,0.9,0.9,2.3,0,3.2L18.5,32.9C17.6,33.8,16.2,33.8,15.3,32.9z"/>
<path d="M20.8,29.2L0.7,7.2c-1-1.1-1-2.8,0-3.8l2.3-2.6c1-1.1,2.5-1.1,3.5,0l16,17.4l16-17.4c1-1.1,2.5-1.1,3.5,0l2.3,2.6
	c1,1.1,1,2.8,0,3.8l-20.1,22C23.3,30.3,21.8,30.3,20.8,29.2z"/>
</svg>
