<?xml version="1.0" encoding="utf-8"?>
<!-- Generator: Adobe Illustrator 17.1.0, SVG Export Plug-In . SVG Version: 6.00 Build 0)  -->
<!DOCTYPE svg PUBLIC "-//W3C//DTD SVG 1.1//EN" "http://www.w3.org/Graphics/SVG/1.1/DTD/svg11.dtd">
<svg version="1.1" id="Layer_1" xmlns="http://www.w3.org/2000/svg" xmlns:xlink="http://www.w3.org/1999/xlink" x="0px" y="0px"
	 viewBox="0 0 39.7 45" enable-background="new 0 0 39.7 45" xml:space="preserve">
<path fill="#da624a" d="M23.9,36.6H26c0.6,0,1.1-0.5,1.1-1.1v-19c0-0.6-0.5-1.1-1.1-1.1h-2.1c-0.6,0-1.1,0.5-1.1,1.1v19
	C22.8,36.1,23.3,36.6,23.9,36.6z M38.3,7H31l-3-5c-0.8-1.3-2.1-2-3.6-2h-8.9c-1.5,0-2.9,0.8-3.6,2L9,7H1.7C1,7,0.3,7.7,0.3,8.4v1.4
	c0,0.8,0.6,1.4,1.4,1.4h1.4v29.5C3.1,43.1,5,45,7.4,45l0,0h25.3c2.3,0,4.2-1.9,4.2-4.2l0,0V11.3h1.4c0.8,0,1.4-0.6,1.4-1.4V8.4
	C39.7,7.7,39.1,7,38.3,7z M15.4,4.5c0.1-0.2,0.3-0.3,0.5-0.3h8.3c0.2,0,0.4,0.1,0.5,0.3L26.1,7H13.9L15.4,4.5z M32.7,40.8H7.4V11.3
	h25.3V40.8z M14,36.6h2.1c0.6,0,1.1-0.5,1.1-1.1v-19c0-0.6-0.5-1.1-1.1-1.1H14c-0.6,0-1.1,0.5-1.1,1.1v19C13,36.1,13.5,36.6,14,36.6
	z"/>
</svg>
