<?xml version="1.0" encoding="utf-8"?>
<!-- Generator: Adobe Illustrator 17.1.0, SVG Export Plug-In . SVG Version: 6.00 Build 0)  -->
<!DOCTYPE svg PUBLIC "-//W3C//DTD SVG 1.1//EN" "http://www.w3.org/Graphics/SVG/1.1/DTD/svg11.dtd">
<svg version="1.1" id="Layer_1" xmlns="http://www.w3.org/2000/svg" xmlns:xlink="http://www.w3.org/1999/xlink" x="0px" y="0px"
	 viewBox="0 0 45 40" enable-background="new 0 0 45 40" xml:space="preserve">
<path fill="#da624a" d="M31.4,27l2.5-2.5c0.4-0.4,1.1-0.1,1.1,0.4v11.4c0,2.1-1.7,3.8-3.8,3.8H3.8C1.7,40,0,38.3,0,36.3V8.8
	C0,6.7,1.7,5,3.8,5h21.4c0.6,0,0.8,0.7,0.4,1.1l-2.5,2.5c-0.1,0.1-0.3,0.2-0.4,0.2H3.8v27.5h27.5v-8.9C31.3,27.2,31.3,27.1,31.4,27z
	 M43.7,11.2L23.1,31.7l-7.1,0.8c-2,0.2-3.8-1.5-3.6-3.6l0.8-7.1L33.8,1.3c1.8-1.8,4.7-1.8,6.5,0l3.4,3.4
	C45.4,6.5,45.4,9.4,43.7,11.2z M35.9,13.6l-4.5-4.5L16.9,23.6l-0.6,5.1l5.1-0.6L35.9,13.6z M41,7.4L37.6,4c-0.3-0.3-0.8-0.3-1.2,0
	l-2.4,2.4l4.5,4.5L41,8.5C41.3,8.2,41.3,7.7,41,7.4z"/>
</svg>
