<?xml version="1.0" encoding="utf-8"?>
<!-- Generator: Adobe Illustrator 17.1.0, SVG Export Plug-In . SVG Version: 6.00 Build 0)  -->
<!DOCTYPE svg PUBLIC "-//W3C//DTD SVG 1.1//EN" "http://www.w3.org/Graphics/SVG/1.1/DTD/svg11.dtd">
<svg version="1.1" id="Layer_1" xmlns="http://www.w3.org/2000/svg" xmlns:xlink="http://www.w3.org/1999/xlink" x="0px" y="0px"
	 viewBox="0 0 45 45" enable-background="new 0 0 45 45" xml:space="preserve">
<path display="none" fill="#da624a" d="M45.9,3.4c-5.8-4.9-14.8-4.1-20.3,1.5C20-0.8,11-1.5,5.2,3.4c-7.5,6.4-6.5,16.7-1,22.2
	l17.6,18c1,1,2.4,1.6,3.8,1.6c1.5,0,2.7-0.6,3.7-1.6l17.6-18C52.4,20,53.5,9.7,45.9,3.4z M43.5,22.2L26,40c-0.2,0.2-0.5,0.2-0.7,0
	L7.7,22.2C4.1,18.4,3.3,11.4,8.5,7c3.9-3.3,9.9-2.8,13.6,1l3.5,3.5l3.5-3.5C33,4.2,39,3.7,42.8,7C48,11.4,47.2,18.4,43.5,22.2
	L43.5,22.2z"/>
<path display="none" fill="#da624a" d="M39.3,10c-3,0-5.5,2.5-5.6,5.5c0,2.2,1.1,4,2.8,5v9.9c0,5-4.4,9.1-9.9,9.1
	c-5.2,0-9.5-3.9-9.8-8.8c6.4-1.4,11.2-7,11.2-13.8V3.3c0-1-0.7-1.8-1.7-2l-5.6-1.1c-1.1-0.2-2.3,0.5-2.5,1.7l-0.2,1.4
	c-0.2,1.1,0.5,2.3,1.7,2.5l2.7,0.6v10.7c0,4.7-3.8,8.5-8.3,8.5c-4.7,0-8.5-3.8-8.5-8.4V6.2l2.7-0.6c1.1-0.2,1.9-1.4,1.7-2.5L9.7,1.8
	C9.4,0.7,8.3-0.1,7.2,0.1L1.7,1.2c-1,0.2-1.7,1-1.7,2v13.6c0,6.8,4.9,12.5,11.2,13.8c0.2,8,7,14.3,15.5,14.3
	c8.5,0,15.5-6.6,15.5-14.8v-9.9c1.7-1,2.8-2.7,2.8-4.9C45,12.4,42.4,9.9,39.3,10z M39.3,16.9c-0.8,0-1.4-0.7-1.4-1.4
	s0.7-1.4,1.4-1.4s1.4,0.7,1.4,1.4S40.1,16.9,39.3,16.9z"/>
<path fill="#da624a" d="M40.3,5.8c-5.1-4.3-13-3.6-17.8,1.3c-4.9-5-12.7-5.6-17.8-1.3C-2,11.4-1,20.5,3.7,25.3l15.5,15.7
	c0.9,0.9,2.1,1.4,3.3,1.4c1.3,0,2.4-0.5,3.3-1.4l15.5-15.7C46,20.5,47,11.4,40.3,5.8z M38.3,22.4L22.8,38.1c-0.2,0.2-0.4,0.2-0.6,0
	L6.7,22.4c-3.2-3.3-3.9-9.5,0.6-13.3c3.4-2.9,8.7-2.4,12,0.9l3.1,3.1l3.1-3.1c3.3-3.4,8.6-3.8,12-0.9C42.1,12.9,41.4,19.1,38.3,22.4
	L38.3,22.4z"/>
</svg>
