<?xml version="1.0" encoding="utf-8"?>
<!-- Generator: Adobe Illustrator 17.1.0, SVG Export Plug-In . SVG Version: 6.00 Build 0)  -->
<!DOCTYPE svg PUBLIC "-//W3C//DTD SVG 1.1//EN" "http://www.w3.org/Graphics/SVG/1.1/DTD/svg11.dtd">
<svg version="1.1" id="Layer_1" xmlns="http://www.w3.org/2000/svg" xmlns:xlink="http://www.w3.org/1999/xlink" x="0px" y="0px"
	 viewBox="0 0 36.9 44.7" enable-background="new 0 0 36.9 44.7" xml:space="preserve">
<ellipse display="none" fill="#E5E5E5" cx="18.9" cy="22.3" rx="23.9" ry="22.3"/>
<g display="none">
	<ellipse display="inline" fill="#757575" cx="18.5" cy="17.7" rx="6.1" ry="5.7"/>
	<path display="inline" fill="#757575" d="M26.8,31.2H10.9c0-4.3,3.8-7.8,8.4-7.8C23,23.4,26.8,26.9,26.8,31.2z"/>
</g>
<circle display="none" fill="#E5E5E5" cx="18.5" cy="22.4" r="22.4"/>
<g display="none">
	<circle display="inline" fill="#757575" cx="18" cy="18.8" r="5.1"/>
	<path display="inline" fill="#757575" d="M25,31H11.5c0-3.9,3.2-7.1,7.1-7.1C21.8,23.9,25,27.1,25,31z"/>
</g>
<path display="none" fill="#da624a" d="M22.3,9.4H-0.3c-2.1,0-3.7,1.6-3.7,3.5V34c0,1.9,1.7,3.5,3.7,3.5h22.6c2.1,0,3.7-1.6,3.7-3.5
	V12.9C26,11,24.3,9.4,22.3,9.4L22.3,9.4z M37.1,12.2l-8.6,5.5v11.5l8.6,5.5c1.7,1.1,3.9,0,3.9-1.9V14.1C41,12.2,38.8,11.1,37.1,12.2
	z"/>
<g>
	<path fill="#909CC3" d="M18.5,28.4c-8.1,0-14.2-6.1-14.2-14.2S10.4,0,18.5,0c8.1,0,14.2,6.1,14.2,14.2
		C32.7,22.3,26.6,28.4,18.5,28.4z M18.5,4.1c-5.1,0-9.1,4.1-9.1,9.1s4.1,9.1,9.1,9.1s9.1-4.1,9.1-9.1S23.6,4.1,18.5,4.1z"/>
	<path fill="#909CC3" d="M36.8,44.6H0.2l0-3c1.4-14.6,10-24.3,18.3-18.3c8.2,6,18.3,8.1,18.3,18.3V44.6z M5.3,39.6h26.4
		c-1-6.1-6.1-11.2-13.2-11.2C12.4,28.4,7.3,33.5,5.3,39.6z"/>
</g>
</svg>
