<?xml version="1.0" encoding="utf-8"?>
<!-- Generator: Adobe Illustrator 17.1.0, SVG Export Plug-In . SVG Version: 6.00 Build 0)  -->
<!DOCTYPE svg PUBLIC "-//W3C//DTD SVG 1.1//EN" "http://www.w3.org/Graphics/SVG/1.1/DTD/svg11.dtd">
<svg version="1.1" id="Layer_1" xmlns="http://www.w3.org/2000/svg" xmlns:xlink="http://www.w3.org/1999/xlink" x="0px" y="0px"
	 viewBox="0 0 32.9 44.7" enable-background="new 0 0 32.9 44.7" xml:space="preserve">
<ellipse display="none" fill="#E5E5E5" cx="16.9" cy="22.3" rx="23.9" ry="22.3"/>
<g display="none">
	<ellipse display="inline" fill="#757575" cx="16.5" cy="17.7" rx="6.1" ry="5.7"/>
	<path display="inline" fill="#757575" d="M24.9,31.2H8.9c0-4.3,3.8-7.8,8.4-7.8C21.1,23.4,24.9,26.9,24.9,31.2z"/>
</g>
<circle display="none" fill="#E5E5E5" cx="16.5" cy="22.4" r="22.4"/>
<g display="none">
	<circle display="inline" fill="#757575" cx="16" cy="18.8" r="5.1"/>
	<path display="inline" fill="#757575" d="M23,31H9.6c0-3.9,3.2-7.1,7.1-7.1C19.8,23.9,23,27.1,23,31z"/>
</g>
<path display="none" fill="#da624a" d="M20.3,9.4H-2.3C-4.4,9.4-6,11-6,12.9V34c0,1.9,1.7,3.5,3.7,3.5h22.6c2.1,0,3.7-1.6,3.7-3.5
	V12.9C24,11,22.4,9.4,20.3,9.4L20.3,9.4z M35.1,12.2l-8.6,5.5v11.5l8.6,5.5c1.7,1.1,3.9,0,3.9-1.9V14.1
	C39.1,12.2,36.8,11.1,35.1,12.2z"/>
<g display="none">
	<path display="inline" fill="#909CC3" d="M16.5,28.4c-8.1,0-14.2-6.1-14.2-14.2S8.4,0,16.5,0c8.1,0,14.2,6.1,14.2,14.2
		C30.7,22.3,24.6,28.4,16.5,28.4z M16.5,4.1c-5.1,0-9.1,4.1-9.1,9.1s4.1,9.1,9.1,9.1s9.1-4.1,9.1-9.1S21.6,4.1,16.5,4.1z"/>
	<path display="inline" fill="#909CC3" d="M34.8,44.6H-1.7l0-3c1.4-14.6,10-24.3,18.3-18.3c8.2,6,18.3,8.1,18.3,18.3V44.6z
		 M3.3,39.6h26.4c-1-6.1-6.1-11.2-13.2-11.2C10.4,28.4,5.4,33.5,3.3,39.6z"/>
</g>
<g>
	<path fill="#909CC3" d="M26,44.9H6.9c-3.4,0-6.7-3.4-6.7-6.7V22.4c0-3.4,3.4-6.7,6.7-6.7H26c3.4,0,6.7,3.4,6.7,6.7v15.7
		C31.6,41.5,29.4,44.9,26,44.9z M6.9,21.3C5.8,21.3,5.8,21.3,6.9,21.3L5.8,38.2c0,0,0,1.1,1.1,1.1H26c0,0,1.1,0,1.1-1.1V22.4
		c0,0,0-1.1-1.1-1.1H6.9z"/>
	<path fill="#909CC3" d="M8.1,19.1H2.4v-5.6C2.4,5.6,9.2,0,15.9,0c7.9,0,13.5,6.7,13.5,13.5h-5.6c0-4.5-3.4-7.9-7.9-7.9
		S8.1,9,8.1,13.5V19.1z"/>
</g>
</svg>
