<?xml version="1.0" encoding="utf-8"?>
<!-- Generator: Adobe Illustrator 17.1.0, SVG Export Plug-In . SVG Version: 6.00 Build 0)  -->
<!DOCTYPE svg PUBLIC "-//W3C//DTD SVG 1.1//EN" "http://www.w3.org/Graphics/SVG/1.1/DTD/svg11.dtd">
<svg version="1.1" id="Layer_1" xmlns="http://www.w3.org/2000/svg" xmlns:xlink="http://www.w3.org/1999/xlink" x="0px" y="0px"
	 viewBox="0 0 45 45" enable-background="new 0 0 45 45" xml:space="preserve">
<circle fill="#FCDBD9" cx="22.5" cy="22.5" r="22.5"/>
<path fill="#da624a" d="M23.4,19v-3.9h-5.8c-0.4,0-0.7,0.3-0.7,0.7v13.4c0,0.4,0.3,0.7,0.7,0.7h9.7c0.4,0,0.7-0.3,0.7-0.7v-9.4h-3.9
	C23.7,19.7,23.4,19.4,23.4,19z M25.3,25.8c0,0.2-0.2,0.3-0.3,0.3h-4.8c-0.2,0-0.3-0.2-0.3-0.3v-0.2c0-0.2,0.2-0.3,0.3-0.3h4.8
	c0.2,0,0.3,0.2,0.3,0.3V25.8z M25.3,23.9c0,0.2-0.2,0.3-0.3,0.3h-4.8c-0.2,0-0.3-0.2-0.3-0.3v-0.2c0-0.2,0.2-0.3,0.3-0.3h4.8
	c0.2,0,0.3,0.2,0.3,0.3V23.9z M25.3,21.9v0.2c0,0.2-0.2,0.3-0.3,0.3h-4.8c-0.2,0-0.3-0.2-0.3-0.3v-0.2c0-0.2,0.2-0.3,0.3-0.3h4.8
	C25.1,21.5,25.3,21.7,25.3,21.9z M28,18.6v0.2h-3.7v-3.7h0.2c0.2,0,0.4,0.1,0.5,0.2l2.8,2.8C28,18.2,28,18.4,28,18.6z"/>
</svg>
