<?xml version="1.0" encoding="utf-8"?>
<!-- Generator: Adobe Illustrator 17.1.0, SVG Export Plug-In . SVG Version: 6.00 Build 0)  -->
<!DOCTYPE svg PUBLIC "-//W3C//DTD SVG 1.1//EN" "http://www.w3.org/Graphics/SVG/1.1/DTD/svg11.dtd">
<svg version="1.1" id="Layer_1" xmlns="http://www.w3.org/2000/svg" xmlns:xlink="http://www.w3.org/1999/xlink" x="0px" y="0px"
	 viewBox="0 0 45 44.2" enable-background="new 0 0 45 44.2" xml:space="preserve">
<path display="none" d="M22.5,0C10.1,0,0,10.1,0,22.5S10.1,45,22.5,45S45,34.9,45,22.5S34.9,0,22.5,0z M30,32.5
	c-0.4,0.4-0.7,0.7-1,1c-0.3,0.3-0.5,0.6-0.6,1c-0.1,0.5-0.2,1-0.4,1.5l-1.6,4.3c-1.2,0.3-2.5,0.4-3.9,0.4v-2.5
	c0.2-1.1-0.7-3.3-2.1-4.7c-0.5-0.5-0.9-1.3-0.9-2.1v-2.9c0-1.1-0.6-2-1.5-2.5c-1.3-0.7-3.2-1.7-4.4-2.4c-1-0.5-2-1.2-2.9-2l-0.1-0.1
	c-0.6-0.6-1.2-1.2-1.6-1.9c-0.9-1.2-2.2-3.3-3.1-4.6c1.9-4.1,5.2-7.4,9.4-9.2l2.2,1.1c1,0.5,2.1-0.2,2.1-1.3v-1
	c0.7-0.1,1.5-0.2,2.2-0.2L24.4,7C25,7.5,25,8.4,24.4,9L24,9.4L23,10.4c-0.3,0.3-0.3,0.7,0,1l0.4,0.4c0.3,0.3,0.3,0.7,0,1l-0.7,0.7
	c-0.1,0.1-0.3,0.2-0.5,0.2h-0.8c-0.2,0-0.4,0.1-0.5,0.2L20,14.9c-0.2,0.2-0.3,0.6-0.1,0.8l1.4,2.8c0.2,0.5-0.1,1.1-0.6,1.1h-0.5
	c-0.2,0-0.3-0.1-0.5-0.2l-0.8-0.7c-0.4-0.3-0.9-0.4-1.4-0.3l-2.8,0.9c-0.4,0.1-0.7,0.6-0.7,1c0,0.4,0.2,0.8,0.6,1l1,0.5
	c0.9,0.4,1.8,0.6,2.8,0.6s2.1,2.5,2.9,2.9h6.1c0.8,0,1.5,0.3,2.1,0.9l1.2,1.2c0.5,0.5,0.8,1.2,0.8,2C31.2,30.6,30.8,31.7,30,32.5z
	 M37.8,24.2c-0.5-0.1-1-0.5-1.3-0.9l-1.6-2.4c-0.5-0.7-0.5-1.7,0-2.4l1.8-2.7c0.2-0.3,0.5-0.6,0.8-0.7l1.2-0.6
	c1.2,2.4,1.9,5.2,1.9,8.1c0,0.8-0.1,1.6-0.2,2.3L37.8,24.2z"/>
<path display="none" d="M20.6,29L0.7,7.1c-1-1.1-1-2.8,0-3.8L3,0.8c1-1.1,2.5-1.1,3.5,0l15.9,17.3L38.2,0.8c1-1,2.5-1,3.5,0L44,3.3
	c1,1.1,1,2.8,0,3.8L24.1,29C23.2,30,21.6,30,20.6,29z"/>
<path display="none" fill="#da624a" d="M40.2,0H4.8C2.2,0,0,2.2,0,4.8v35.4C0,42.8,2.2,45,4.8,45h35.4c2.7,0,4.8-2.2,4.8-4.8V4.8
	C45,2.2,42.8,0,40.2,0z M40.2,40.2H4.8V4.8h35.4V40.2z M36.6,15.9L19.2,33.1c-0.5,0.5-1.2,0.5-1.7,0l-9.1-9.2
	c-0.5-0.5-0.5-1.2,0-1.7l2.3-2.3c0.5-0.5,1.2-0.5,1.7,0l6,6.1l14.2-14.1c0.5-0.5,1.2-0.5,1.7,0l2.3,2.3C37,14.7,37,15.4,36.6,15.9z"
	/>
<path display="none" fill="#da624a" d="M40.1,0H4.8C2.2,0,0,2.2,0,4.9v35.6c0,2.7,2.2,4.9,4.8,4.9h35.3c2.7,0,4.8-2.2,4.8-4.9V4.9
	C45,2.2,42.8,0,40.1,0z M39.5,40.5H5.4c-0.3,0-0.6-0.3-0.6-0.6V5.5c0-0.3,0.3-0.6,0.6-0.6h34.1c0.3,0,0.6,0.3,0.6,0.6v34.4
	C40.1,40.2,39.9,40.5,39.5,40.5z"/>
<path display="none" fill="#da624a" d="M22.5,4.3c10,0,18.1,8.1,18.1,18.1c0,10-8.1,18.1-18.1,18.1c-10,0-18.1-8.1-18.1-18.1
	C4.3,12.5,12.5,4.3,22.5,4.3 M22.5,0C10.1,0,0,10.1,0,22.5s10.1,22.5,22.5,22.5s22.5-10.1,22.5-22.5S34.9,0,22.5,0z M22.5,15.2
	c-4,0-7.2,3.2-7.2,7.2s3.2,7.2,7.2,7.2s7.2-3.2,7.2-7.2S26.5,15.2,22.5,15.2z"/>
<path display="none" fill="#da624a" d="M22.5,0C10.1,0,0,10.1,0,22.5S10.1,45,22.5,45S45,34.9,45,22.5S34.9,0,22.5,0z M22.5,40.7
	c-10,0-18.1-8.1-18.1-18.1S12.5,4.4,22.5,4.4s18.1,8.1,18.1,18.1S32.5,40.7,22.5,40.7z"/>
<path display="none" fill="#595959" d="M1.6,7.2h41.7c0.9,0,1.6-0.7,1.6-1.6v-4c0-0.9-0.7-1.6-1.6-1.6H1.6C0.7,0,0,0.7,0,1.6v4
	C0,6.5,0.7,7.2,1.6,7.2z M1.6,23.3h41.7c0.9,0,1.6-0.7,1.6-1.6v-4c0-0.9-0.7-1.6-1.6-1.6H1.6c-0.9,0-1.6,0.7-1.6,1.6v4
	C0,22.6,0.7,23.3,1.6,23.3z M1.6,39.3h41.7c0.9,0,1.6-0.7,1.6-1.6v-4c0-0.9-0.7-1.6-1.6-1.6H1.6c-0.9,0-1.6,0.7-1.6,1.6v4
	C0,38.6,0.7,39.3,1.6,39.3z"/>
<ellipse fill="#EDEDED" cx="22.5" cy="22.1" rx="22.5" ry="22.1"/>
<ellipse fill="#C6C6C6" cx="22.4" cy="22.3" rx="17.8" ry="17.3"/>
<ellipse fill="#969696" cx="22.2" cy="22.2" rx="12.9" ry="12.5"/>
<ellipse fill="#98C7E5" cx="23.1" cy="21.8" rx="7.1" ry="7.3"/>
<path fill="#FFBC01" d="M22.7,22.1L4.6,22.2c0,0-0.6,6.9,5.2,12.4c0,0,5,5.6,12.7,5.2L22.7,22.1z"/>
<path fill="#91B702" d="M22.3,22.2L45,22.3c0,0,0.7,8.6-6.5,15.4c0,0-6.3,6.9-16,6.5L22.3,22.2z"/>
<path fill="#FF6029" d="M22.5,22.2L9.4,22.2c0,0-0.4-4.9,3.8-8.8c0,0,3.6-3.9,9.2-3.7L22.5,22.2z"/>
<ellipse fill="#EDEDED" cx="22.7" cy="22.1" rx="2.6" ry="2.8"/>
</svg>
