<svg id="Layer_1" data-name="Layer 1" xmlns="http://www.w3.org/2000/svg" xmlns:xlink="http://www.w3.org/1999/xlink" viewBox="0 0 419.72 274.48"><defs><style>.cls-1{fill:none;}.cls-2{fill:#f2f2f2;}.cls-3{clip-path:url(#clip-path);}.cls-4{fill:#84d3eb;}.cls-5{fill:#f9eb6d;}.cls-6,.cls-7{fill:#1ba149;}.cls-7{isolation:isolate;opacity:0.7;}</style><clipPath id="clip-path" transform="translate(95.89)"><rect class="cls-1" x="6.05" y="6.05" width="243.9" height="243.9"/></clipPath></defs><g id="Layer_2" data-name="Layer 2"><rect class="cls-2" x="95.89" width="256" height="256"/></g><g class="cls-3"><path class="cls-4" d="M6.05,6.05H250V250H6.05Z" transform="translate(95.89)"/><path class="cls-5" d="M167.06,98.94a26.68,26.68,0,1,0-26.67-26.69v0A26.68,26.68,0,0,0,167.06,98.94Z" transform="translate(95.89)"/><path class="cls-6" d="M237.33,256.14,83.93,117.73A18.76,18.76,0,0,0,58.21,117L-95.89,256.14" transform="translate(95.89)"/><path class="cls-7" d="M63.45,274.48l118.1-119.6a18.76,18.76,0,0,1,25.28-1.17l117,97.19" transform="translate(95.89)"/></g></svg>