<?xml version="1.0" encoding="utf-8"?>
<!-- Generator: Adobe Illustrator 17.1.0, SVG Export Plug-In . SVG Version: 6.00 Build 0)  -->
<!DOCTYPE svg PUBLIC "-//W3C//DTD SVG 1.1//EN" "http://www.w3.org/Graphics/SVG/1.1/DTD/svg11.dtd">
<svg version="1.1" id="Layer_1" xmlns="http://www.w3.org/2000/svg" xmlns:xlink="http://www.w3.org/1999/xlink" x="0px" y="0px"
	 viewBox="0 0 45 28.5" enable-background="new 0 0 45 28.5" xml:space="preserve">
<ellipse display="none" fill="#E5E5E5" cx="22.9" cy="13.1" rx="23.9" ry="22.3"/>
<g display="none">
	<ellipse display="inline" fill="#757575" cx="22.5" cy="8.6" rx="6.1" ry="5.7"/>
	<path display="inline" fill="#757575" d="M30.9,22H14.9c0-4.3,3.8-7.8,8.4-7.8C27.1,14.2,30.9,17.8,30.9,22z"/>
</g>
<circle display="none" fill="#E5E5E5" cx="22.5" cy="13.2" r="22.4"/>
<g display="none">
	<circle display="inline" fill="#757575" cx="22" cy="9.6" r="5.1"/>
	<path display="inline" fill="#757575" d="M29,21.8H15.6c0-3.9,3.2-7.1,7.1-7.1C25.8,14.8,29,18,29,21.8z"/>
</g>
<path fill="#da624a" d="M26.3,0.3H3.7C1.6,0.3,0,1.8,0,3.8v21.1c0,1.9,1.7,3.5,3.7,3.5h22.6c2.1,0,3.7-1.6,3.7-3.5V3.8
	C30,1.8,28.4,0.3,26.3,0.3L26.3,0.3z M41.1,3l-8.6,5.5v11.5l8.6,5.5c1.7,1.1,3.9,0,3.9-1.9V4.9C45.1,3.1,42.8,2,41.1,3z"/>
</svg>
