<svg id="Layer_1" data-name="Layer 1" xmlns="http://www.w3.org/2000/svg" viewBox="0 0 402.37 403.28"><defs><style>.cls-1{fill:#f5f5f5;}.cls-2{fill:#fdc3c0;}.cls-3{fill:#ff5e5d;}.cls-4{fill:#f44040;}.cls-5{fill:#f09495;}.cls-6{fill:#063985;}.cls-7{fill:#03316b;}</style></defs><circle class="cls-1" cx="201.18" cy="201.18" r="201.18"/><path class="cls-2" d="M158.33,301.65l57.92,36L247,306.35S231.38,290.18,232.94,269c0,0,27.66,12.27,42-14.08,0,0,15.13-16.18,14.35-114a21.37,21.37,0,0,1-16.17-13.57,280.77,280.77,0,0,1-37.83,30.26,281.32,281.32,0,0,1-39.91,22.18s-14.61-3.13-18.52,10.69a26,26,0,0,0-.62,11.55,27.46,27.46,0,0,0,10.46,16.69,216.89,216.89,0,0,1,3.2,32.55c.31,13.42.42,20.28-2.61,27.13C181.24,292.11,167.15,298.67,158.33,301.65Z" transform="translate(-0.94 -0.18)"/><path class="cls-3" d="M159.17,302.18c36.82,3.2,55.9,31.53,58.12,34.95l29-30.91,40.41,8s20.89,1,28.2,26.08l8.62,21.58a195.55,195.55,0,0,1-81,37.72c-52.33,10.75-93.89-3.6-108.56-8.87a210.11,210.11,0,0,1-51.24-26.95l13.57-37.56C99.1,323.15,122.67,299,159.17,302.18Z" transform="translate(-0.94 -0.18)"/><path class="cls-4" d="M122.6,364.57q-.16,10.73-.31,21.45l4.74,1.76a62.25,62.25,0,0,0-4.43-23.21Z" transform="translate(-0.94 -0.18)"/><polygon class="cls-4" points="285.61 360.56 294.87 379.61 296.83 378.83 285.61 360.56"/><path class="cls-5" d="M288.25,156.94V141.09s-10.37-2.15-15.65-11.94c0,0-20.55,23.09-77.29,51.26-1-.13-8.82-1.09-14.6,4.61a17,17,0,0,0-4.77,9.55c.16,1.23.33,2.49.52,3.78q.48,3.08,1,5.93s5.89-7.24,19.78-5.67c0,0,20.15-2.93,75.13-50.28Z" transform="translate(-0.94 -0.18)"/><path class="cls-5" d="M187.68,216.81H193A91,91,0,0,0,202.87,239a93,93,0,0,0,31.22,30.54,46.51,46.51,0,0,0,1.53,19.11s-18.2-15.07-46.76-10.57C188.86,278,192,231.09,187.68,216.81Z" transform="translate(-0.94 -0.18)"/><path class="cls-6" d="M289.31,95.58c-15.2-22.8-40-34.5-72.5-34.3a105.4,105.4,0,0,0-18,1.5,120,120,0,0,0-13.7,3.9c-3.9,1.4-8.7,2.5-10.5,2.5a62.05,62.05,0,0,0-11.2,2c-28.2,7.2-46.7,32.3-53.6,72.7-3.1,17.9-4.3,50.9-3.6,97.8l.7,41,2.7,2.3c4.7,4,14.4,10.5,22.9,15.2l8.1,4.6,9.4-1.2c11.3-1.4,16.8-2.9,22.9-5.9,5.9-3.1,13.2-11.2,15.4-17.3,2.4-6.4,3.1-32.1,1.5-49.3l-1.3-13.1-.2-.14a4.5,4.5,0,0,1-2.56-1.15,4.5,4.5,0,0,1-4.16-3.05,5.26,5.26,0,0,1-6.86-4.6c-.31-4.41-1.85-8.72-1.63-13.18a23.71,23.71,0,0,1,2.83-9.52c3.36-6.69,8.14-9.88,15.47-10.91,7.07-1,12.84-4.48,18.64-8.46,6.68-4.58,13.51-8.73,20.57-12.7s14.85-8.52,21-14c2.7-2.38,5.4-4.51,8.32-6.62,2.36-1.71,4.2-4.33,6.8-5.69,5.48-2.88,9.94,1.73,14.25,4.51,4,2.58,8.23,4.3,10.23,8.94,2.39,5.54,1.17,12.61,1.3,18.48.17,8.15.17,16.16-1.16,24.23a4,4,0,0,1-4.29,3.61c-1.41,24.12-3.48,40.11-6.77,52.91-3,11.8-6.5,18.4-12.7,24-7.9,7.1-18.5,9.3-29.3,6-2.7-.8-5.1-1.2-5.4-.9s0,4.1.7,8.6a49.33,49.33,0,0,0,5.2,16.2c6.2,12.7,5.6,12.3,23,15.1,14.3,2.4,15.3,2.4,18.3.9a89.2,89.2,0,0,0,20.4-15.3l6-5.9.7-31.9c.3-17.5,1.1-40.4,1.7-50.8C312,154.28,306.11,120.78,289.31,95.58Z" transform="translate(-0.94 -0.18)"/><path class="cls-7" d="M238.55,63.44s31.31,42.65,4.31,62.21L162.25,171s-15.92,6.66-17,21.79L138.51,303.7s24,.26,35.22-6c0,0,17.73-8.35,16.69-35.74,0,0-1-36.52-1.82-44.87,0,0-13.57-.78-11.48-23.74,0,0,3.65-15.39,17.74-12,0,0,28.69-14.35,45.65-25.31,0,0,22.95-14.34,31.82-25.3a31.81,31.81,0,0,0,15.13,11.48s-.52,81.65-9.13,105.65c0,0-9.65,33.39-45.39,21.91,0,0-.52,22.7,12.52,37.05L277,312s24.78-14.34,28.7-23c0,0,6.52-111.65,2.87-124.7C308.6,164.39,308.33,70.48,238.55,63.44Z" transform="translate(-0.94 -0.18)"/></svg>