<svg id="Layer_1" data-name="Layer 1" xmlns="http://www.w3.org/2000/svg" viewBox="0 0 92 92"><defs><style>.cls-1{fill:#ffe3e1;}.cls-2{fill:#c53929;}</style></defs><circle class="cls-1" cx="46" cy="46" r="46"/><path class="cls-2" d="M42.28,65.75a1.75,1.75,0,0,1-3.5,0V43a1.75,1.75,0,0,1,3.5,0Zm8.74,0a1.75,1.75,0,0,1-3.5,0V43A1.75,1.75,0,0,1,51,43Zm8.73,0a1.75,1.75,0,1,1-3.49,0V43a1.75,1.75,0,0,1,3.49,0Zm-.27-41,4,6h7.62a2.62,2.62,0,1,1,0,5.24h-.87V69.25A8.73,8.73,0,0,1,61.5,78H37a8.73,8.73,0,0,1-8.74-8.73V36h-.88a2.62,2.62,0,0,1,0-5.24h7.63l4-6a6.12,6.12,0,0,1,5.09-2.73H54.39a6.14,6.14,0,0,1,5.09,2.73Zm-18.13,6H57.19l-2.08-3.1a.86.86,0,0,0-.72-.39H44.15c-.29,0-.66.14-.73.39ZM33.54,69.25A3.5,3.5,0,0,0,37,72.74H61.5A3.49,3.49,0,0,0,65,69.25V36H33.54Z" transform="translate(-3.27 -4.02)"/></svg>