<?xml version="1.0" encoding="utf-8"?>
<!-- Generator: Adobe Illustrator 17.1.0, SVG Export Plug-In . SVG Version: 6.00 Build 0)  -->
<!DOCTYPE svg PUBLIC "-//W3C//DTD SVG 1.1//EN" "http://www.w3.org/Graphics/SVG/1.1/DTD/svg11.dtd">
<svg version="1.1" xmlns="http://www.w3.org/2000/svg" xmlns:xlink="http://www.w3.org/1999/xlink" x="0px" y="0px"
	 viewBox="0 0 48 48" enable-background="new 0 0 48 48" xml:space="preserve">
<g id="Layer_1">
</g>
<g id="Layer_2" display="none">
	<circle display="inline" fill="#da624a" cx="24" cy="24" r="24"/>
	<g display="inline">
		<circle fill="#FFFFFF" cx="23.5" cy="20.2" r="5.5"/>
		<path fill="#FFFFFF" d="M31,33.3H16.6c0-4.1,3.4-7.6,7.6-7.6C27.6,25.7,31,29.1,31,33.3z"/>
	</g>
</g>
<g id="Layer_3">
	<circle fill="#da624a" cx="24" cy="24" r="24"/>
	<path fill="#FFFFFF" d="M14.4,22.7c1.5,0,2.7-1.2,2.7-2.7c0-1.5-1.2-2.7-2.7-2.7s-2.7,1.2-2.7,2.7C11.7,21.5,12.9,22.7,14.4,22.7z
		 M33.2,22.7c1.5,0,2.7-1.2,2.7-2.7c0-1.5-1.2-2.7-2.7-2.7s-2.7,1.2-2.7,2.7C30.5,21.5,31.7,22.7,33.2,22.7z M34.5,24h-2.7
		c-0.7,0-1.4,0.3-1.9,0.8c1.7,0.9,2.9,2.6,3.2,4.6h2.8c0.7,0,1.3-0.6,1.3-1.3v-1.3C37.2,25.2,36,24,34.5,24z M23.8,24
		c2.6,0,4.7-2.1,4.7-4.7s-2.1-4.7-4.7-4.7s-4.7,2.1-4.7,4.7S21.2,24,23.8,24z M27,25.3h-0.3c-0.9,0.4-1.8,0.7-2.9,0.7
		c-1,0-2-0.3-2.9-0.7h-0.3c-2.7,0-4.8,2.2-4.8,4.8v1.2c0,1.1,0.9,2,2,2h12.1c1.1,0,2-0.9,2-2v-1.2C31.8,27.5,29.7,25.3,27,25.3z
		 M17.6,24.8c-0.5-0.5-1.2-0.8-1.9-0.8H13c-1.5,0-2.7,1.2-2.7,2.7V28c0,0.7,0.6,1.3,1.3,1.3h2.8C14.7,27.4,15.9,25.7,17.6,24.8
		L17.6,24.8z"/>
</g>
</svg>
